<?xml version="1.0" standalone="no"?>
<svg viewBox="0 0 200 200" xmlns="http://www.w3.org/2000/svg">
  <path fill="#DC9B84" d="M15.6,-33.2C19.6,-21.7,21.9,-16.4,27.5,-10.7C33,-4.9,41.8,1.2,42.7,7.3C43.6,13.4,36.5,19.5,29.3,22.4C22.1,25.4,14.7,25.2,5.2,36.6C-4.3,48,-15.9,70.9,-27.5,75.7C-39.2,80.6,-50.8,67.3,-62.6,54C-74.3,40.8,-86.3,27.4,-86.6,13.5C-87,-0.4,-75.8,-15,-61.8,-21C-47.8,-27.1,-31.1,-24.7,-20.3,-33.1C-9.5,-41.6,-4.8,-60.9,0.5,-61.7C5.8,-62.5,11.6,-44.7,15.6,-33.2Z" transform="translate(100 100)" />
</svg>
