<?xml version="1.0" standalone="no"?>
<svg viewBox="0 0 200 200" xmlns="http://www.w3.org/2000/svg">
  <path fill="#FF77E9" d="M26,-37C37.7,-32.8,54.1,-32.5,61.7,-25.4C69.3,-18.2,68.1,-4.3,63.5,7.3C58.9,18.8,50.9,28,43.7,39.9C36.5,51.7,30.1,66.3,20.7,67.8C11.3,69.3,-1.1,57.7,-11.6,49.9C-22,42,-30.4,37.8,-44.1,32.4C-57.8,27,-76.8,20.4,-83.3,8.9C-89.8,-2.7,-83.8,-19.1,-76.1,-34.3C-68.4,-49.5,-59.1,-63.5,-46.2,-67.1C-33.2,-70.7,-16.6,-63.9,-4.7,-56.5C7.1,-49.1,14.2,-41.2,26,-37Z" transform="translate(100 100)" />
</svg>
