<?xml version="1.0" standalone="no"?>
<svg viewBox="0 0 200 200" xmlns="http://www.w3.org/2000/svg">
  <path fill="#94A1F4" d="M33.4,-50.7C44.2,-45,54.6,-37.4,59,-27.1C63.4,-16.9,61.7,-4.1,56,5.3C50.3,14.6,40.5,20.6,32.6,26.2C24.6,31.7,18.4,36.8,11.3,39.1C4.2,41.5,-3.9,41.1,-16.2,43C-28.4,44.9,-44.9,49.1,-51.3,43.5C-57.6,37.9,-53.8,22.5,-58,7.1C-62.1,-8.3,-74.2,-23.9,-73.2,-36.5C-72.2,-49.1,-58.1,-58.8,-43.7,-62.9C-29.4,-67,-14.7,-65.4,-1.7,-62.8C11.3,-60.1,22.6,-56.4,33.4,-50.7Z" transform="translate(100 100)" />
</svg>
