<svg id="visual" viewBox="0 0 900 900" width="900" height="900" xmlns="http://www.w3.org/2000/svg" xmlns:xlink="http://www.w3.org/1999/xlink" version="1.1"><g><g transform="translate(615 153)"><path d="M33.2 -41.5C39.8 -34.1 39.7 -20.5 42.3 -7.2C45 6.1 50.5 19.2 47.1 29.2C43.8 39.2 31.5 46.2 18.9 49.7C6.3 53.3 -6.6 53.6 -19.6 50.4C-32.6 47.2 -45.6 40.5 -52.7 29.7C-59.8 18.9 -61.1 3.9 -57.6 -9.1C-54 -22.1 -45.6 -33.2 -35.2 -40C-24.8 -46.8 -12.4 -49.3 0.5 -49.8C13.3 -50.4 26.6 -49 33.2 -41.5Z" fill="#CC68E1"></path></g><g transform="translate(445 756)"><path d="M13.7 -16C18.2 -12.6 22.5 -8.7 23.7 -3.9C24.9 0.9 23 6.6 20.8 13.6C18.6 20.6 16.1 28.9 11.2 30.7C6.3 32.4 -1 27.6 -7.6 23.9C-14.1 20.2 -20 17.5 -24 12.8C-28.1 8 -30.4 1.1 -30 -6C-29.7 -13.2 -26.6 -20.6 -21.1 -23.8C-15.7 -27.1 -7.8 -26.1 -1.6 -24.2C4.6 -22.3 9.3 -19.4 13.7 -16Z" fill="#CC68E1"></path></g><g transform="translate(507 456)"><path d="M20.9 -21.8C28.3 -18.7 36.4 -13.3 37.9 -6.5C39.3 0.3 34.1 8.5 28.7 15.3C23.3 22.1 17.6 27.5 10.6 30.6C3.6 33.8 -4.7 34.8 -11.8 32.3C-19 29.8 -25 23.8 -27.6 17C-30.2 10.2 -29.5 2.6 -28.8 -5.8C-28.2 -14.1 -27.6 -23.2 -22.8 -26.7C-18 -30.2 -9 -28.1 -1.1 -26.8C6.8 -25.4 13.5 -24.8 20.9 -21.8Z" fill="#CC68E1"></path></g><g transform="translate(378 186)"><path d="M34.4 -38.6C42.6 -34.3 45.6 -21.4 43.8 -10.8C42 -0.2 35.3 8.2 29.5 15.8C23.6 23.4 18.5 30.2 10.6 36C2.7 41.8 -8 46.6 -17.6 44.7C-27.2 42.8 -35.8 34.2 -38 24.7C-40.3 15.2 -36.2 4.8 -35.1 -7C-33.9 -18.7 -35.8 -31.8 -30.4 -36.6C-25.1 -41.4 -12.5 -37.9 0.3 -38.3C13.2 -38.6 26.3 -42.9 34.4 -38.6Z" fill="#CC68E1"></path></g><g transform="translate(694 674)"><path d="M17.7 -21.4C22 -17.4 24 -11 25.8 -4.1C27.6 2.8 29.1 10.3 26.7 16.3C24.3 22.3 17.9 26.9 11.2 28.2C4.6 29.5 -2.3 27.4 -9.2 25C-16.1 22.6 -22.9 19.9 -28.7 14.4C-34.5 8.9 -39.3 0.5 -38 -6.6C-36.7 -13.8 -29.2 -19.9 -21.8 -23.3C-14.5 -26.7 -7.2 -27.6 -0.3 -27.2C6.7 -26.9 13.3 -25.4 17.7 -21.4Z" fill="#CC68E1"></path></g><g transform="translate(675 405)"><path d="M11.9 -14C15.5 -11.2 18.5 -7.5 18.7 -3.7C18.8 0.1 16.3 4 14.3 9C12.3 14 10.9 20.1 7.4 22.1C3.9 24.2 -1.7 22.1 -5.6 19.1C-9.5 16.1 -11.8 12.1 -13.3 8.2C-14.9 4.4 -15.8 0.7 -15.7 -3.3C-15.6 -7.3 -14.5 -11.6 -11.7 -14.6C-8.9 -17.6 -4.5 -19.2 -0.1 -19C4.2 -18.8 8.4 -16.9 11.9 -14Z" fill="#CC68E1"></path></g><g transform="translate(820 566)"><path d="M19.5 -24.4C24.9 -18.7 28.6 -12.2 32.9 -3.5C37.2 5.2 42 16.1 39.5 25.1C37 34.1 27.3 41.2 17.4 42.6C7.4 43.9 -2.7 39.7 -11 34.7C-19.3 29.8 -25.6 24.1 -30.2 17C-34.7 10 -37.4 1.4 -37.4 -8C-37.4 -17.4 -34.7 -27.8 -28 -33.2C-21.3 -38.7 -10.7 -39.3 -1.8 -37.2C7.1 -35.1 14.1 -30.1 19.5 -24.4Z" fill="#CC68E1"></path></g><g transform="translate(788 239)"><path d="M16.4 -20C21.5 -15.2 26 -10.3 27.1 -4.7C28.3 1 26 7.3 22 11.3C18.1 15.3 12.4 16.9 6.7 19.5C1 22 -4.8 25.5 -11 25.3C-17.3 25.2 -24.1 21.5 -28.1 15.7C-32.1 9.9 -33.3 1.9 -31.6 -5.2C-30 -12.4 -25.4 -18.6 -19.7 -23.3C-13.9 -28 -7 -31 -0.7 -30.2C5.6 -29.4 11.3 -24.8 16.4 -20Z" fill="#CC68E1"></path></g><g transform="translate(121 108)"><path d="M7.7 -10C9.4 -7.8 9.8 -4.8 10.3 -1.8C10.8 1.1 11.5 4.1 10.5 6.5C9.6 8.9 7.1 10.7 4.4 11.3C1.8 11.9 -1 11.3 -3.7 10.3C-6.4 9.3 -8.9 7.9 -10.6 5.7C-12.3 3.6 -13.1 0.6 -12.5 -2C-11.8 -4.6 -9.6 -6.8 -7.3 -8.8C-5 -10.9 -2.5 -12.9 0.3 -13.2C3 -13.5 6 -12.2 7.7 -10Z" fill="#CC68E1"></path></g><g transform="translate(109 702)"><path d="M28.2 -30.5C35.8 -27.3 40.7 -17.7 39.3 -9.3C37.9 -1 30.3 6.1 24.7 12.9C19.2 19.7 15.6 26.3 10.3 28.2C5 30.1 -1.9 27.2 -9.5 24.9C-17 22.6 -25.2 21 -30.1 15.8C-34.9 10.6 -36.3 2 -34.1 -5.2C-31.8 -12.4 -25.9 -18 -19.6 -21.5C-13.3 -25 -6.6 -26.2 1.8 -28.4C10.3 -30.6 20.6 -33.8 28.2 -30.5Z" fill="#CC68E1"></path></g><g transform="translate(798 817)"><path d="M9 -10.9C11.4 -8.6 13 -5.6 13.6 -2.4C14.1 0.8 13.7 4.3 11.8 6C9.9 7.8 6.4 8 3.5 8.4C0.7 8.9 -1.6 9.8 -4.3 9.7C-7.1 9.7 -10.4 8.8 -11.2 6.7C-12.1 4.7 -10.6 1.6 -9.2 -0.9C-7.9 -3.3 -6.8 -5.1 -5.3 -7.5C-3.8 -9.9 -1.9 -12.9 0.7 -13.7C3.3 -14.5 6.5 -13.1 9 -10.9Z" fill="#CC68E1"></path></g><g transform="translate(282 354)"><path d="M12.9 -17.2C15.7 -13 16.2 -8 16.2 -3.5C16.1 0.9 15.5 4.8 13.8 8.1C12 11.4 9.1 14.2 5.2 16.7C1.3 19.3 -3.7 21.5 -7.6 20.3C-11.5 19.1 -14.4 14.6 -16.1 10C-17.8 5.5 -18.4 1.1 -18.5 -4.1C-18.6 -9.4 -18.3 -15.4 -15.1 -19.6C-12 -23.8 -6 -26.1 -0.5 -25.5C5 -24.9 10.1 -21.5 12.9 -17.2Z" fill="#CC68E1"></path></g><g transform="translate(319 620)"><path d="M20.6 -25.8C26.5 -19.6 31 -12.9 33.3 -5.1C35.6 2.7 35.7 11.7 32.2 19.6C28.8 27.5 21.9 34.3 14.2 35.6C6.5 36.9 -1.9 32.7 -9.2 28.6C-16.4 24.5 -22.5 20.5 -27.8 14.5C-33.2 8.5 -37.8 0.5 -36.3 -6.1C-34.8 -12.7 -27.1 -17.9 -20 -23.9C-12.9 -29.8 -6.5 -36.5 0.4 -37C7.3 -37.6 14.7 -31.9 20.6 -25.8Z" fill="#CC68E1"></path></g><g transform="translate(483 294)"><path d="M12.9 -15.2C16.9 -12 20.6 -8.1 20.6 -4.2C20.6 -0.3 17 3.7 13.7 6.4C10.4 9.1 7.4 10.6 3.9 12.6C0.5 14.6 -3.4 17.2 -6.8 16.8C-10.3 16.4 -13.3 12.9 -15.4 9C-17.4 5.2 -18.4 0.9 -18.2 -3.7C-18 -8.3 -16.6 -13.1 -13.3 -16.5C-10.1 -19.8 -5 -21.6 -0.3 -21.2C4.4 -20.8 8.9 -18.3 12.9 -15.2Z" fill="#CC68E1"></path></g><g transform="translate(110 534)"><path d="M20.3 -25.7C26.9 -18.6 33.3 -12.8 35.8 -5.4C38.2 2.1 36.6 11.1 32.4 18.9C28.1 26.7 21.3 33.1 12.7 37.3C4.1 41.5 -6.2 43.4 -13.4 39.6C-20.6 35.8 -24.7 26.2 -27.3 17.7C-29.8 9.2 -30.8 1.8 -29.2 -4.8C-27.6 -11.4 -23.4 -17.2 -18.1 -24.5C-12.8 -31.9 -6.4 -40.8 0.2 -41C6.8 -41.3 13.6 -32.8 20.3 -25.7Z" fill="#CC68E1"></path></g><g transform="translate(146 288)"><path d="M23.6 -31.2C28.9 -23.7 30.3 -14.6 30.2 -6.6C30.1 1.4 28.5 8.5 25.6 15.9C22.6 23.3 18.4 31.1 11.8 34.3C5.2 37.5 -3.7 36 -11.7 32.8C-19.8 29.6 -26.9 24.7 -30.3 17.9C-33.7 11.2 -33.4 2.7 -30.5 -4C-27.6 -10.6 -22.3 -15.4 -16.8 -22.9C-11.3 -30.4 -5.6 -40.7 1.8 -42.7C9.1 -44.8 18.3 -38.8 23.6 -31.2Z" fill="#CC68E1"></path></g><g transform="translate(765 85)"><path d="M4.2 -4.8C5.5 -4 6.4 -2.7 6.6 -1.2C6.7 0.2 6.2 1.7 5.2 2.7C4.3 3.7 3 4.2 1.7 4.7C0.4 5.1 -0.9 5.5 -2.3 5.4C-3.7 5.3 -5.3 4.6 -6.1 3.4C-6.9 2.2 -6.9 0.5 -6.5 -1C-6 -2.5 -5.1 -3.7 -3.9 -4.5C-2.7 -5.3 -1.4 -5.6 0.1 -5.7C1.5 -5.8 3 -5.6 4.2 -4.8Z" fill="#CC68E1"></path></g><g transform="translate(301 797)"><path d="M4.3 -4.8C5.6 -4 6.7 -2.7 7.6 -0.9C8.4 0.9 8.9 3.2 8.1 4.6C7.2 6 4.9 6.6 2.8 7C0.8 7.3 -1 7.5 -2.3 6.8C-3.6 6.1 -4.4 4.6 -5.7 3C-7 1.4 -8.7 -0.2 -9 -2C-9.2 -3.8 -7.9 -5.8 -6.1 -6.5C-4.4 -7.2 -2.2 -6.7 -0.4 -6.3C1.5 -5.9 2.9 -5.6 4.3 -4.8Z" fill="#CC68E1"></path></g><g transform="translate(540 615)"><path d="M22.2 -26.9C27.5 -22 29.7 -13.8 29.6 -6.4C29.5 1 27 7.6 23.9 14.4C20.7 21.2 16.8 28.3 10.3 32.4C3.9 36.4 -5.1 37.6 -12.6 34.8C-20.1 32.1 -26.2 25.3 -28.9 18C-31.6 10.6 -31.1 2.6 -30.6 -6.3C-30.1 -15.2 -29.7 -25 -24.6 -29.9C-19.5 -34.8 -9.8 -34.7 -0.7 -34C8.4 -33.2 16.9 -31.7 22.2 -26.9Z" fill="#CC68E1"></path></g><g transform="translate(606 815)"><path d="M28.5 -33.9C36.8 -27 43.4 -17.9 44.5 -8.3C45.6 1.2 41.2 11.3 35.2 19C29.2 26.8 21.4 32.2 12 37.9C2.5 43.5 -8.8 49.3 -16.7 46.3C-24.6 43.2 -29.1 31.3 -31.7 21.1C-34.3 10.9 -34.9 2.3 -32.7 -5C-30.6 -12.4 -25.6 -18.6 -19.7 -25.9C-13.8 -33.3 -6.9 -41.9 1.6 -43.7C10.1 -45.6 20.2 -40.9 28.5 -33.9Z" fill="#CC68E1"></path></g><g transform="translate(477 77)"><path d="M6.9 -7.8C8.8 -6.5 10.3 -4.3 10 -2.3C9.7 -0.3 7.6 1.4 6 2.8C4.4 4.1 3.3 5 1.9 5.7C0.6 6.3 -1 6.8 -2.6 6.5C-4.1 6.2 -5.6 5.1 -6.6 3.7C-7.6 2.2 -8.1 0.4 -7.7 -1.3C-7.3 -2.9 -6.1 -4.3 -4.6 -5.7C-3.2 -7 -1.6 -8.3 0.4 -8.8C2.5 -9.4 4.9 -9.1 6.9 -7.8Z" fill="#CC68E1"></path></g></g></svg>