<?xml version="1.0" standalone="no"?>
<svg viewBox="0 0 200 200" xmlns="http://www.w3.org/2000/svg">
  <path fill="#8AFCEC" d="M26.6,-41.1C29,-39.8,21.7,-23.2,31.8,-11.5C41.8,0.2,69.2,7,71.2,12C73.2,17,50,20,36.8,27.6C23.6,35.3,20.5,47.4,13.1,53.9C5.6,60.4,-6.3,61.3,-13.1,54.7C-19.8,48.1,-21.4,34,-25.8,24.7C-30.2,15.4,-37.5,10.9,-44.8,2.5C-52.1,-5.8,-59.3,-18.1,-60,-31.8C-60.6,-45.5,-54.6,-60.6,-43.6,-58C-32.5,-55.4,-16.2,-35,-2.1,-31.8C12.1,-28.5,24.1,-42.4,26.6,-41.1Z" transform="translate(100 100)" />
</svg>
