<?xml version="1.0" standalone="no"?>
<svg viewBox="0 0 200 200" xmlns="http://www.w3.org/2000/svg">
  <path fill="#BDA4F7" d="M47.7,-73.7C60.9,-65.7,70.1,-51,75.7,-35.5C81.3,-20,83.3,-3.9,72.3,4.1C61.3,12,37.3,11.8,26.3,20.5C15.2,29.3,17.1,47,14.1,47.8C11.1,48.5,3.2,32.2,-1.8,23C-6.8,13.8,-8.9,11.6,-14,9.8C-19.2,8,-27.5,6.6,-32.7,1.8C-37.9,-3,-40,-11.1,-42.7,-25.4C-45.4,-39.7,-48.6,-60.2,-41.6,-70.9C-34.5,-81.7,-17.3,-82.7,0,-82.7C17.3,-82.7,34.5,-81.6,47.7,-73.7Z" transform="translate(100 100)" />
</svg>
