<?xml version="1.0" standalone="no"?>
<svg viewBox="0 0 200 200" xmlns="http://www.w3.org/2000/svg">
  <path fill="#A4C35F" d="M11.8,-22.2C18.6,-14.1,29.7,-16.3,33.1,-13.7C36.5,-11.1,32.3,-3.5,31.4,4.7C30.5,12.9,33,21.8,30.7,29.2C28.3,36.5,21.2,42.3,12.4,47.1C3.6,51.9,-6.9,55.6,-18.2,55.4C-29.6,55.1,-41.7,50.9,-49.9,42.6C-58.2,34.3,-62.5,21.9,-68.3,7.4C-74.1,-7.1,-81.4,-23.8,-71.7,-27.6C-62,-31.4,-35.3,-22.4,-20.5,-26.9C-5.7,-31.4,-2.9,-49.4,-0.2,-49.1C2.5,-48.9,5,-30.3,11.8,-22.2Z" transform="translate(100 100)" />
</svg>
