<svg id="visual" viewBox="0 0 900 600" width="900" height="600" xmlns="http://www.w3.org/2000/svg" xmlns:xlink="http://www.w3.org/1999/xlink" version="1.1"><g><g transform="translate(600 80)"><path d="M23.8 -31.2C31.3 -22 38.2 -15 41 -6.1C43.9 2.7 42.7 13.3 37.5 21.1C32.4 28.9 23.2 33.7 13.4 37.7C3.6 41.7 -6.9 44.8 -17.1 42.9C-27.3 41 -37.2 34.1 -44.1 24.4C-51 14.7 -55 2.1 -53.6 -10.1C-52.1 -22.2 -45.3 -34.1 -35.5 -42.8C-25.7 -51.6 -12.8 -57.3 -2.4 -54.5C8.1 -51.7 16.3 -40.4 23.8 -31.2Z" fill="#a962eb"></path></g><g transform="translate(351 476)"><path d="M9.9 -12.3C12.1 -10 12.6 -6.2 13.8 -2.1C15 2.1 16.9 6.4 15.9 10.1C14.9 13.8 11 16.7 6.9 17.6C2.8 18.6 -1.6 17.5 -5.2 15.6C-8.9 13.8 -11.8 11.1 -13 8C-14.3 4.9 -13.9 1.3 -13 -2.1C-12.2 -5.5 -11.1 -8.6 -8.8 -10.9C-6.6 -13.2 -3.3 -14.7 0.3 -15C3.9 -15.4 7.8 -14.6 9.9 -12.3Z" fill="#a962eb"></path></g><g transform="translate(535 354)"><path d="M6.9 -8.3C9.3 -6.3 11.7 -4.4 12.6 -1.8C13.6 0.8 13.2 4.1 11.5 6.4C9.9 8.8 7.1 10.3 4.5 10.4C1.9 10.6 -0.6 9.4 -3.3 8.6C-6 7.8 -8.9 7.3 -10.1 5.7C-11.2 4 -10.5 1.1 -9.5 -1.1C-8.5 -3.4 -7.1 -5.1 -5.4 -7.3C-3.8 -9.4 -1.9 -12.1 0.2 -12.3C2.3 -12.5 4.6 -10.4 6.9 -8.3Z" fill="#a962eb"></path></g><g transform="translate(106 351)"><path d="M24.5 -28.9C30.9 -23.8 34.8 -15.3 35.6 -6.8C36.5 1.6 34.3 10.1 30.3 17.9C26.3 25.8 20.5 33 12.9 35.9C5.4 38.8 -3.8 37.3 -12.4 34.2C-20.9 31 -28.7 26 -32.2 19C-35.8 12 -35.2 2.9 -32.1 -4.1C-29 -11.1 -23.4 -16.2 -17.6 -21.4C-11.9 -26.7 -5.9 -32.2 1.5 -34C9 -35.9 18 -34.1 24.5 -28.9Z" fill="#a962eb"></path></g><g transform="translate(690 242)"><path d="M31.9 -38.5C39.2 -31.8 41.5 -19.8 44.3 -7.3C47 5.1 50.2 17.9 44.9 25C39.7 32 26.1 33.1 14.7 34.9C3.3 36.8 -5.9 39.2 -16.8 38.5C-27.7 37.9 -40.3 34.2 -47.8 25.5C-55.3 16.8 -57.7 3.1 -53.6 -7.5C-49.4 -18.1 -38.6 -25.7 -28.6 -31.9C-18.6 -38.1 -9.3 -43 1.5 -44.8C12.3 -46.6 24.5 -45.2 31.9 -38.5Z" fill="#a962eb"></path></g><g transform="translate(796 490)"><path d="M17.2 -20.6C22.5 -16.1 27 -10.8 29.1 -4.3C31.2 2.1 30.8 9.8 26.7 14C22.6 18.2 14.8 18.8 7.8 21.3C0.7 23.8 -5.6 28.2 -11.1 27.5C-16.6 26.7 -21.3 20.9 -24.4 14.6C-27.5 8.2 -29 1.4 -28.1 -5.2C-27.2 -11.8 -24 -18.3 -18.9 -22.8C-13.9 -27.4 -6.9 -30 -0.5 -29.4C6 -28.8 11.9 -25.1 17.2 -20.6Z" fill="#a962eb"></path></g><g transform="translate(371 216)"><path d="M23.1 -28.2C27.9 -23.4 28.4 -14.3 27.8 -6.5C27.3 1.2 25.6 7.5 22.3 12.6C19.1 17.8 14.2 21.8 8.9 23.3C3.6 24.7 -2.3 23.5 -9.6 22.6C-17 21.6 -25.9 20.8 -29.4 16.2C-32.9 11.6 -31 3.3 -27.9 -3.3C-24.8 -9.9 -20.5 -14.6 -15.6 -19.4C-10.8 -24.2 -5.4 -29 1.9 -31.2C9.1 -33.5 18.2 -33 23.1 -28.2Z" fill="#a962eb"></path></g><g transform="translate(222 98)"><path d="M9.7 -11.3C12.6 -9.1 15 -6.1 15.8 -2.7C16.5 0.8 15.6 4.6 13.6 7.6C11.6 10.6 8.5 12.7 5.1 14.1C1.6 15.4 -2.2 16 -6 15.2C-9.8 14.4 -13.5 12.2 -15 8.9C-16.6 5.7 -16 1.5 -14.3 -1.5C-12.5 -4.5 -9.7 -6.3 -7.1 -8.5C-4.5 -10.7 -2.3 -13.3 0.6 -14C3.4 -14.7 6.8 -13.4 9.7 -11.3Z" fill="#a962eb"></path></g><g transform="translate(552 522)"><path d="M14.7 -17C19.7 -13.4 24.7 -9.3 25.6 -4.5C26.4 0.3 23.1 5.9 19.1 9.5C15.2 13.1 10.6 14.9 5.7 17.4C0.8 19.9 -4.4 23.2 -7.7 21.8C-11 20.3 -12.3 14.1 -13.8 9.1C-15.4 4.1 -17.2 0.4 -17.7 -4.2C-18.2 -8.8 -17.4 -14.3 -14.2 -18.2C-11 -22.1 -5.5 -24.4 -0.3 -24C4.9 -23.6 9.8 -20.6 14.7 -17Z" fill="#a962eb"></path></g><g transform="translate(252 314)"><path d="M10.9 -15.2C14 -10.4 16.4 -6.8 19.1 -1.8C21.9 3.2 25 9.7 23.2 13.8C21.3 17.8 14.4 19.3 7.7 22C1.1 24.8 -5.4 28.8 -9.5 27C-13.6 25.1 -15.3 17.5 -18.2 11.1C-21.1 4.8 -25.3 -0.2 -25.8 -5.8C-26.3 -11.4 -23.2 -17.6 -18.3 -22.2C-13.3 -26.7 -6.7 -29.6 -1.4 -27.9C3.9 -26.3 7.8 -20.1 10.9 -15.2Z" fill="#a962eb"></path></g><g transform="translate(75 133)"><path d="M23.5 -27.7C30 -22.5 34.6 -14.7 35.2 -6.8C35.9 1 32.6 9 28.4 16.5C24.1 24 19 31.2 11.8 34.9C4.5 38.6 -4.9 38.9 -12.4 35.5C-20 32.2 -25.7 25.1 -29.5 17.5C-33.3 9.9 -35.1 1.7 -34.6 -7C-34.1 -15.7 -31.3 -24.8 -25.2 -30.1C-19 -35.4 -9.5 -36.8 -0.5 -36.2C8.5 -35.6 16.9 -32.9 23.5 -27.7Z" fill="#a962eb"></path></g><g transform="translate(758 84)"><path d="M19.6 -22.3C25.2 -18.6 29.6 -12.3 29.7 -6.1C29.8 0.1 25.6 6.3 21.4 11.2C17.2 16.1 12.8 19.8 7.5 22.5C2.2 25.2 -4.2 27.1 -9.7 25.5C-15.2 24 -20 19.1 -21.9 13.7C-23.9 8.2 -23.1 2.1 -22.9 -5C-22.8 -12.1 -23.3 -20.3 -19.6 -24.4C-15.9 -28.4 -8 -28.4 -0.5 -27.8C6.9 -27.2 13.9 -26 19.6 -22.3Z" fill="#a962eb"></path></g><g transform="translate(187 500)"><path d="M20.2 -23.1C25.2 -19.8 27.8 -12.6 30 -4.7C32.1 3.2 33.8 11.9 30.2 16.9C26.6 21.9 17.8 23.3 10.5 24C3.1 24.6 -2.8 24.3 -10 23.4C-17.1 22.6 -25.4 21 -30.3 15.9C-35.1 10.8 -36.5 2 -34.2 -5.1C-31.9 -12.3 -25.8 -18 -19.5 -21.1C-13.2 -24.2 -6.6 -24.8 0.5 -25.4C7.5 -25.9 15.1 -26.5 20.2 -23.1Z" fill="#a962eb"></path></g><g transform="translate(443 79)"><path d="M20.1 -23C26.3 -18.8 31.7 -12.7 32.8 -5.9C33.9 0.9 30.7 8.4 26.6 15.3C22.6 22.2 17.7 28.6 10.2 33.8C2.8 39 -7.1 42.9 -14.1 39.9C-21.1 36.8 -25.1 26.8 -28.2 18C-31.2 9.1 -33.4 1.4 -33 -6.7C-32.6 -14.9 -29.8 -23.5 -23.8 -27.7C-17.9 -31.9 -9 -31.8 -1 -30.6C7 -29.4 13.9 -27.2 20.1 -23Z" fill="#a962eb"></path></g><g transform="translate(806 338)"><path d="M25.3 -32C31.3 -25.1 33.8 -15.7 36.2 -5.8C38.7 4.1 41 14.6 37.4 22.2C33.7 29.9 24.1 34.7 14 38.3C3.9 42 -6.6 44.6 -15.6 41.7C-24.5 38.9 -31.9 30.8 -36.9 21.6C-41.9 12.3 -44.5 2 -43.6 -8.5C-42.7 -19 -38.2 -29.6 -30.4 -36.2C-22.5 -42.7 -11.2 -45.3 -0.8 -44.3C9.6 -43.3 19.2 -38.8 25.3 -32Z" fill="#a962eb"></path></g></g></svg>