<svg id="visual" viewBox="0 0 900 600" width="900" height="600" xmlns="http://www.w3.org/2000/svg" xmlns:xlink="http://www.w3.org/1999/xlink" version="1.1"><rect x="0" y="0" width="900" height="600" fill="#c561ff"></rect><g fill="none" stroke="#46ff00" stroke-width="9"><circle r="61" cx="451" cy="227"></circle><circle r="30" cx="858" cy="579"></circle><circle r="31" cx="624" cy="568"></circle><circle r="41" cx="771" cy="61"></circle><circle r="59" cx="809" cy="442"></circle><circle r="32" cx="736" cy="231"></circle><circle r="57" cx="530" cy="102"></circle><circle r="42" cx="28" cy="530"></circle><circle r="58" cx="18" cy="369"></circle><circle r="31" cx="6" cy="218"></circle><circle r="57" cx="344" cy="452"></circle><circle r="32" cx="133" cy="277"></circle><circle r="53" cx="585" cy="406"></circle><circle r="54" cx="709" cy="356"></circle><circle r="37" cx="335" cy="299"></circle><circle r="57" cx="167" cy="130"></circle><circle r="52" cx="216" cy="489"></circle><circle r="31" cx="347" cy="582"></circle><circle r="30" cx="33" cy="28"></circle><circle r="31" cx="498" cy="597"></circle><circle r="52" cx="209" cy="4"></circle><circle r="32" cx="344" cy="105"></circle><circle r="53" cx="864" cy="290"></circle></g></svg>