<svg id="visual" viewBox="0 0 900 600" width="900" height="600" xmlns="http://www.w3.org/2000/svg" xmlns:xlink="http://www.w3.org/1999/xlink" version="1.1"><rect x="0" y="0" width="900" height="600" fill="#009f3a"></rect><g fill="none" stroke="#3fd2cd" stroke-width="10"><circle r="61" cx="395" cy="380"></circle><circle r="30" cx="547" cy="155"></circle><circle r="45" cx="788" cy="461"></circle><circle r="32" cx="561" cy="2"></circle><circle r="50" cx="766" cy="161"></circle><circle r="49" cx="733" cy="289"></circle><circle r="40" cx="381" cy="84"></circle><circle r="45" cx="107" cy="353"></circle><circle r="41" cx="47" cy="19"></circle><circle r="45" cx="485" cy="527"></circle><circle r="56" cx="77" cy="230"></circle><circle r="37" cx="280" cy="212"></circle><circle r="30" cx="702" cy="567"></circle><circle r="57" cx="437" cy="253"></circle><circle r="55" cx="884" cy="96"></circle><circle r="46" cx="146" cy="565"></circle><circle r="50" cx="541" cy="392"></circle><circle r="44" cx="862" cy="324"></circle><circle r="39" cx="287" cy="559"></circle><circle r="34" cx="769" cy="22"></circle><circle r="42" cx="229" cy="58"></circle><circle r="47" cx="890" cy="591"></circle><circle r="50" cx="256" cy="412"></circle></g></svg>