<svg id="visual" viewBox="0 0 900 600" width="900" height="600" xmlns="http://www.w3.org/2000/svg" xmlns:xlink="http://www.w3.org/1999/xlink" version="1.1"><rect x="0" y="0" width="900" height="600" fill="#001220"></rect><g fill="#A7233A"><circle r="46" cx="57" cy="317"></circle><circle r="18" cx="179" cy="233"></circle><circle r="29" cx="113" cy="115"></circle><circle r="44" cx="643" cy="311"></circle><circle r="32" cx="86" cy="431"></circle><circle r="39" cx="342" cy="265"></circle><circle r="38" cx="222" cy="67"></circle><circle r="29" cx="619" cy="528"></circle><circle r="21" cx="381" cy="135"></circle><circle r="39" cx="790" cy="316"></circle><circle r="22" cx="596" cy="30"></circle><circle r="25" cx="290" cy="141"></circle><circle r="31" cx="52" cy="185"></circle><circle r="21" cx="572" cy="252"></circle><circle r="41" cx="214" cy="427"></circle><circle r="19" cx="408" cy="479"></circle><circle r="44" cx="568" cy="160"></circle><circle r="27" cx="830" cy="221"></circle><circle r="18" cx="88" cy="4"></circle><circle r="23" cx="365" cy="361"></circle><circle r="20" cx="853" cy="9"></circle><circle r="21" cx="769" cy="534"></circle><circle r="28" cx="660" cy="143"></circle><circle r="30" cx="846" cy="419"></circle><circle r="41" cx="477" cy="546"></circle></g></svg>