<svg id="visual" viewBox="0 0 900 600" width="900" height="600" xmlns="http://www.w3.org/2000/svg" xmlns:xlink="http://www.w3.org/1999/xlink" version="1.1"><rect x="0" y="0" width="900" height="600" fill="#52b4ff"></rect><g fill="#2affcb"><circle r="46" cx="519" cy="42"></circle><circle r="18" cx="625" cy="276"></circle><circle r="32" cx="822" cy="401"></circle><circle r="22" cx="483" cy="278"></circle><circle r="32" cx="23" cy="49"></circle><circle r="41" cx="459" cy="120"></circle><circle r="41" cx="627" cy="576"></circle><circle r="27" cx="72" cy="594"></circle><circle r="38" cx="344" cy="35"></circle><circle r="41" cx="545" cy="207"></circle><circle r="41" cx="394" cy="452"></circle><circle r="22" cx="184" cy="17"></circle><circle r="28" cx="87" cy="217"></circle><circle r="27" cx="685" cy="365"></circle><circle r="39" cx="888" cy="537"></circle><circle r="20" cx="821" cy="128"></circle><circle r="42" cx="337" cy="374"></circle><circle r="30" cx="21" cy="403"></circle><circle r="35" cx="107" cy="452"></circle><circle r="33" cx="221" cy="514"></circle><circle r="35" cx="215" cy="110"></circle><circle r="42" cx="672" cy="127"></circle><circle r="40" cx="356" cy="177"></circle><circle r="21" cx="250" cy="277"></circle><circle r="30" cx="731" cy="22"></circle></g></svg>