<svg id="visual" viewBox="0 0 900 600" width="900" height="600" xmlns="http://www.w3.org/2000/svg" xmlns:xlink="http://www.w3.org/1999/xlink" version="1.1"><rect x="0" y="0" width="900" height="600" fill="#F494C2"></rect><g fill="#EDFA69"><circle r="35" cx="493" cy="197"></circle><circle r="16" cx="112" cy="394"></circle><circle r="29" cx="80" cy="523"></circle><circle r="26" cx="774" cy="211"></circle><circle r="18" cx="200" cy="379"></circle><circle r="27" cx="793" cy="476"></circle><circle r="17" cx="737" cy="360"></circle><circle r="18" cx="365" cy="212"></circle><circle r="24" cx="168" cy="264"></circle><circle r="21" cx="240" cy="244"></circle><circle r="29" cx="615" cy="165"></circle><circle r="26" cx="279" cy="150"></circle><circle r="18" cx="324" cy="366"></circle><circle r="16" cx="179" cy="76"></circle><circle r="28" cx="260" cy="552"></circle><circle r="25" cx="685" cy="219"></circle><circle r="17" cx="399" cy="430"></circle><circle r="23" cx="641" cy="313"></circle><circle r="17" cx="851" cy="31"></circle><circle r="33" cx="77" cy="303"></circle><circle r="29" cx="22" cy="73"></circle><circle r="21" cx="245" cy="469"></circle><circle r="29" cx="692" cy="502"></circle><circle r="23" cx="732" cy="592"></circle><circle r="17" cx="185" cy="529"></circle><circle r="29" cx="468" cy="536"></circle><circle r="33" cx="405" cy="318"></circle><circle r="24" cx="422" cy="40"></circle><circle r="18" cx="565" cy="502"></circle><circle r="16" cx="799" cy="310"></circle></g></svg>