<svg id="visual" viewBox="0 0 900 600" width="900" height="600" xmlns="http://www.w3.org/2000/svg" xmlns:xlink="http://www.w3.org/1999/xlink" version="1.1"><rect x="0" y="0" width="900" height="600" fill="#5558b0"></rect><g fill="#CCCCCC"><circle r="46" cx="274" cy="3"></circle><circle r="12" cx="62" cy="388"></circle><circle r="22" cx="705" cy="549"></circle><circle r="12" cx="238" cy="439"></circle><circle r="12" cx="621" cy="235"></circle><circle r="24" cx="385" cy="25"></circle><circle r="37" cx="143" cy="213"></circle><circle r="43" cx="820" cy="208"></circle><circle r="44" cx="638" cy="140"></circle><circle r="12" cx="764" cy="377"></circle><circle r="14" cx="420" cy="471"></circle><circle r="21" cx="895" cy="349"></circle><circle r="40" cx="769" cy="10"></circle><circle r="41" cx="99" cy="17"></circle><circle r="26" cx="432" cy="218"></circle><circle r="25" cx="52" cy="136"></circle><circle r="41" cx="316" cy="168"></circle><circle r="43" cx="219" cy="348"></circle><circle r="26" cx="604" cy="546"></circle><circle r="18" cx="527" cy="224"></circle><circle r="42" cx="344" cy="392"></circle><circle r="28" cx="212" cy="103"></circle><circle r="40" cx="134" cy="508"></circle><circle r="21" cx="505" cy="509"></circle><circle r="35" cx="628" cy="20"></circle><circle r="26" cx="480" cy="16"></circle><circle r="25" cx="251" cy="256"></circle><circle r="25" cx="260" cy="571"></circle><circle r="19" cx="881" cy="503"></circle><circle r="12" cx="784" cy="484"></circle><circle r="44" cx="627" cy="395"></circle></g></svg>