<svg id="visual" viewBox="0 0 900 600" width="900" height="600" xmlns="http://www.w3.org/2000/svg" xmlns:xlink="http://www.w3.org/1999/xlink" version="1.1"><rect x="0" y="0" width="900" height="600" fill="#a557a2"></rect><g fill="none" stroke="#00d8ff" stroke-width="3"><circle r="61" cx="554" cy="515"></circle><circle r="30" cx="119" cy="308"></circle><circle r="36" cx="303" cy="417"></circle><circle r="47" cx="549" cy="109"></circle><circle r="52" cx="136" cy="495"></circle><circle r="36" cx="543" cy="272"></circle><circle r="52" cx="669" cy="147"></circle><circle r="31" cx="768" cy="463"></circle><circle r="55" cx="668" cy="290"></circle><circle r="58" cx="7" cy="582"></circle><circle r="46" cx="325" cy="284"></circle><circle r="39" cx="11" cy="25"></circle><circle r="59" cx="269" cy="110"></circle><circle r="41" cx="33" cy="185"></circle><circle r="42" cx="872" cy="76"></circle><circle r="35" cx="149" cy="63"></circle><circle r="47" cx="459" cy="420"></circle><circle r="58" cx="845" cy="272"></circle><circle r="57" cx="272" cy="547"></circle><circle r="40" cx="394" cy="42"></circle><circle r="37" cx="37" cy="412"></circle><circle r="57" cx="586" cy="391"></circle><circle r="40" cx="895" cy="514"></circle></g></svg>