<svg id="visual" viewBox="0 0 900 600" width="900" height="600" xmlns="http://www.w3.org/2000/svg" xmlns:xlink="http://www.w3.org/1999/xlink" version="1.1"><rect x="0" y="0" width="900" height="600" fill="#e18181"></rect><g fill="#9dff78"><circle r="46" cx="167" cy="502"></circle><circle r="12" cx="599" cy="356"></circle><circle r="26" cx="446" cy="381"></circle><circle r="44" cx="709" cy="170"></circle><circle r="27" cx="476" cy="78"></circle><circle r="40" cx="850" cy="510"></circle><circle r="30" cx="124" cy="2"></circle><circle r="15" cx="42" cy="399"></circle><circle r="21" cx="299" cy="299"></circle><circle r="13" cx="693" cy="59"></circle><circle r="24" cx="788" cy="64"></circle><circle r="28" cx="861" cy="209"></circle><circle r="11" cx="233" cy="192"></circle><circle r="29" cx="617" cy="470"></circle><circle r="39" cx="574" cy="44"></circle><circle r="39" cx="777" cy="569"></circle><circle r="18" cx="267" cy="445"></circle><circle r="33" cx="574" cy="256"></circle><circle r="27" cx="91" cy="241"></circle><circle r="42" cx="129" cy="101"></circle><circle r="25" cx="433" cy="563"></circle><circle r="15" cx="322" cy="121"></circle><circle r="43" cx="9" cy="138"></circle><circle r="38" cx="392" cy="283"></circle><circle r="32" cx="586" cy="587"></circle><circle r="15" cx="823" cy="354"></circle><circle r="41" cx="421" cy="186"></circle><circle r="38" cx="26" cy="35"></circle><circle r="15" cx="707" cy="307"></circle><circle r="35" cx="388" cy="33"></circle><circle r="28" cx="172" cy="324"></circle></g></svg>