<svg id="visual" viewBox="0 0 900 600" width="900" height="600" xmlns="http://www.w3.org/2000/svg" xmlns:xlink="http://www.w3.org/1999/xlink" version="1.1"><rect x="0" y="0" width="900" height="600" fill="#81e1b5"></rect><g fill="#001122"><circle r="46" cx="635" cy="194"></circle><circle r="12" cx="80" cy="284"></circle><circle r="36" cx="61" cy="85"></circle><circle r="21" cx="534" cy="426"></circle><circle r="35" cx="292" cy="488"></circle><circle r="39" cx="307" cy="191"></circle><circle r="15" cx="415" cy="500"></circle><circle r="12" cx="333" cy="51"></circle><circle r="21" cx="858" cy="284"></circle><circle r="32" cx="807" cy="445"></circle><circle r="38" cx="191" cy="92"></circle><circle r="16" cx="542" cy="289"></circle><circle r="11" cx="637" cy="304"></circle><circle r="20" cx="870" cy="545"></circle><circle r="37" cx="375" cy="316"></circle><circle r="25" cx="498" cy="91"></circle><circle r="27" cx="793" cy="201"></circle><circle r="17" cx="755" cy="538"></circle><circle r="43" cx="78" cy="504"></circle><circle r="21" cx="641" cy="3"></circle><circle r="28" cx="96" cy="192"></circle><circle r="37" cx="640" cy="598"></circle><circle r="33" cx="332" cy="596"></circle><circle r="13" cx="607" cy="99"></circle><circle r="33" cx="436" cy="193"></circle><circle r="26" cx="129" cy="585"></circle><circle r="40" cx="843" cy="30"></circle><circle r="40" cx="51" cy="408"></circle><circle r="20" cx="145" cy="360"></circle><circle r="38" cx="188" cy="457"></circle><circle r="23" cx="468" cy="345"></circle></g></svg>