<svg id="visual" viewBox="0 0 900 600" width="900" height="600" xmlns="http://www.w3.org/2000/svg" xmlns:xlink="http://www.w3.org/1999/xlink" version="1.1"><rect x="0" y="0" width="900" height="600" fill="#ffa2fc"></rect><g fill="none" stroke="#0036ff" stroke-width="3"><circle r="61" cx="617" cy="292"></circle><circle r="30" cx="835" cy="162"></circle><circle r="33" cx="38" cy="174"></circle><circle r="52" cx="804" cy="550"></circle><circle r="32" cx="377" cy="7"></circle><circle r="51" cx="806" cy="413"></circle><circle r="52" cx="310" cy="241"></circle><circle r="58" cx="456" cy="221"></circle><circle r="53" cx="173" cy="375"></circle><circle r="49" cx="335" cy="453"></circle><circle r="44" cx="118" cy="70"></circle><circle r="41" cx="511" cy="459"></circle><circle r="34" cx="413" cy="599"></circle><circle r="48" cx="531" cy="29"></circle><circle r="36" cx="39" cy="525"></circle><circle r="44" cx="774" cy="281"></circle><circle r="46" cx="672" cy="411"></circle><circle r="29" cx="4" cy="299"></circle><circle r="50" cx="258" cy="88"></circle><circle r="51" cx="195" cy="583"></circle><circle r="49" cx="745" cy="27"></circle><circle r="40" cx="610" cy="146"></circle><circle r="33" cx="628" cy="584"></circle></g></svg>