<svg id="visual" viewBox="0 0 900 600" width="900" height="600" xmlns="http://www.w3.org/2000/svg" xmlns:xlink="http://www.w3.org/1999/xlink" version="1.1"><rect x="0" y="0" width="900" height="600" fill="#beffa2"></rect><g fill="none" stroke="#000000" stroke-width="3"><circle r="61" cx="359" cy="305"></circle><circle r="30" cx="513" cy="66"></circle><circle r="49" cx="723" cy="519"></circle><circle r="37" cx="109" cy="121"></circle><circle r="52" cx="661" cy="34"></circle><circle r="47" cx="516" cy="319"></circle><circle r="35" cx="277" cy="196"></circle><circle r="47" cx="837" cy="257"></circle><circle r="51" cx="141" cy="357"></circle><circle r="39" cx="435" cy="568"></circle><circle r="50" cx="52" cy="266"></circle><circle r="39" cx="540" cy="474"></circle><circle r="45" cx="815" cy="109"></circle><circle r="59" cx="130" cy="496"></circle><circle r="38" cx="895" cy="450"></circle><circle r="58" cx="711" cy="374"></circle><circle r="40" cx="12" cy="6"></circle><circle r="43" cx="395" cy="135"></circle><circle r="29" cx="583" cy="171"></circle><circle r="40" cx="245" cy="564"></circle><circle r="30" cx="337" cy="14"></circle><circle r="58" cx="11" cy="599"></circle><circle r="41" cx="859" cy="592"></circle></g></svg>