<svg id="visual" viewBox="0 0 900 600" width="900" height="600" xmlns="http://www.w3.org/2000/svg" xmlns:xlink="http://www.w3.org/1999/xlink" version="1.1"><rect x="0" y="0" width="900" height="600" fill="#3939c4"></rect><g fill="none" stroke="#d2c53f" stroke-width="9"><circle r="61" cx="568" cy="151"></circle><circle r="30" cx="224" cy="510"></circle><circle r="36" cx="513" cy="560"></circle><circle r="47" cx="364" cy="108"></circle><circle r="51" cx="102" cy="78"></circle><circle r="42" cx="424" cy="275"></circle><circle r="36" cx="169" cy="378"></circle><circle r="59" cx="49" cy="197"></circle><circle r="52" cx="894" cy="151"></circle><circle r="35" cx="696" cy="511"></circle><circle r="39" cx="846" cy="310"></circle><circle r="41" cx="221" cy="191"></circle><circle r="49" cx="636" cy="373"></circle><circle r="36" cx="711" cy="61"></circle><circle r="44" cx="325" cy="431"></circle><circle r="59" cx="552" cy="9"></circle><circle r="44" cx="811" cy="451"></circle><circle r="52" cx="259" cy="22"></circle><circle r="47" cx="104" cy="590"></circle><circle r="53" cx="842" cy="578"></circle><circle r="39" cx="748" cy="223"></circle><circle r="36" cx="362" cy="570"></circle><circle r="41" cx="22" cy="432"></circle></g></svg>