<svg id="visual" viewBox="0 0 900 600" width="900" height="600" xmlns="http://www.w3.org/2000/svg" xmlns:xlink="http://www.w3.org/1999/xlink" version="1.1"><rect x="0" y="0" width="900" height="600" fill="#a2f7ff"></rect><g fill="none" stroke="#0f00ff" stroke-width="3"><circle r="61" cx="294" cy="157"></circle><circle r="30" cx="564" cy="69"></circle><circle r="57" cx="265" cy="386"></circle><circle r="37" cx="30" cy="191"></circle><circle r="35" cx="194" cy="67"></circle><circle r="31" cx="821" cy="206"></circle><circle r="51" cx="477" cy="317"></circle><circle r="58" cx="848" cy="579"></circle><circle r="58" cx="201" cy="529"></circle><circle r="47" cx="380" cy="511"></circle><circle r="32" cx="599" cy="495"></circle><circle r="33" cx="442" cy="2"></circle><circle r="31" cx="310" cy="9"></circle><circle r="38" cx="52" cy="486"></circle><circle r="50" cx="39" cy="53"></circle><circle r="35" cx="460" cy="164"></circle><circle r="43" cx="34" cy="319"></circle><circle r="56" cx="764" cy="437"></circle><circle r="30" cx="698" cy="299"></circle><circle r="40" cx="189" cy="241"></circle><circle r="51" cx="692" cy="111"></circle><circle r="35" cx="883" cy="30"></circle><circle r="41" cx="875" cy="320"></circle></g></svg>