<svg id="visual" viewBox="0 0 900 600" width="900" height="600" xmlns="http://www.w3.org/2000/svg" xmlns:xlink="http://www.w3.org/1999/xlink" version="1.1"><rect width="900" height="600" fill="#001829"></rect><g><g transform="translate(17 54)"><path d="M0 -26.7L23.1 -13.3L23.1 13.3L0 26.7L-23.1 13.3L-23.1 -13.3Z" fill="none" stroke="#297EA6" stroke-width="2"></path></g><g transform="translate(476 217)"><path d="M0 -19L16.5 -9.5L16.5 9.5L0 19L-16.5 9.5L-16.5 -9.5Z" fill="none" stroke="#297EA6" stroke-width="2"></path></g><g transform="translate(470 586)"><path d="M0 -12L10.4 -6L10.4 6L0 12L-10.4 6L-10.4 -6Z" stroke="#297EA6" fill="none" stroke-width="2"></path></g><g transform="translate(687 15)"><path d="M0 -15L13 -7.5L13 7.5L0 15L-13 7.5L-13 -7.5Z" stroke="#297EA6" fill="none" stroke-width="2"></path></g><g transform="translate(512 401)"><path d="M0 -24L20.8 -12L20.8 12L0 24L-20.8 12L-20.8 -12Z" stroke="#297EA6" fill="none" stroke-width="2"></path></g><g transform="translate(704 188)"><path d="M0 -13L11.3 -6.5L11.3 6.5L0 13L-11.3 6.5L-11.3 -6.5Z" stroke="#297EA6" fill="none" stroke-width="2"></path></g><g transform="translate(257 289)"><path d="M0 -15L13 -7.5L13 7.5L0 15L-13 7.5L-13 -7.5Z" stroke="#297EA6" fill="none" stroke-width="2"></path></g><g transform="translate(227 445)"><path d="M0 -11L9.5 -5.5L9.5 5.5L0 11L-9.5 5.5L-9.5 -5.5Z" stroke="#297EA6" fill="none" stroke-width="2"></path></g><g transform="translate(648 246)"><path d="M0 -19L16.5 -9.5L16.5 9.5L0 19L-16.5 9.5L-16.5 -9.5Z" stroke="#297EA6" fill="none" stroke-width="2"></path></g><g transform="translate(209 392)"><path d="M0 -23L19.9 -11.5L19.9 11.5L0 23L-19.9 11.5L-19.9 -11.5Z" stroke="#297EA6" fill="none" stroke-width="2"></path></g><g transform="translate(720 451)"><path d="M0 -23L19.9 -11.5L19.9 11.5L0 23L-19.9 11.5L-19.9 -11.5Z" stroke="#297EA6" fill="none" stroke-width="2"></path></g><g transform="translate(45 507)"><path d="M0 -11L9.5 -5.5L9.5 5.5L0 11L-9.5 5.5L-9.5 -5.5Z" stroke="#297EA6" fill="none" stroke-width="2"></path></g><g transform="translate(864 225)"><path d="M0 -13L11.3 -6.5L11.3 6.5L0 13L-11.3 6.5L-11.3 -6.5Z" stroke="#297EA6" fill="none" stroke-width="2"></path></g><g transform="translate(415 583)"><path d="M0 -12L10.4 -6L10.4 6L0 12L-10.4 6L-10.4 -6Z" stroke="#297EA6" fill="none" stroke-width="2"></path></g><g transform="translate(767 380)"><path d="M0 -22L19.1 -11L19.1 11L0 22L-19.1 11L-19.1 -11Z" stroke="#297EA6" fill="none" stroke-width="2"></path></g><g transform="translate(345 238)"><path d="M0 -23L19.9 -11.5L19.9 11.5L0 23L-19.9 11.5L-19.9 -11.5Z" stroke="#297EA6" fill="none" stroke-width="2"></path></g><g transform="translate(91 193)"><path d="M0 -16L13.9 -8L13.9 8L0 16L-13.9 8L-13.9 -8Z" stroke="#297EA6" fill="none" stroke-width="2"></path></g><g transform="translate(876 440)"><path d="M0 -11L9.5 -5.5L9.5 5.5L0 11L-9.5 5.5L-9.5 -5.5Z" stroke="#297EA6" fill="none" stroke-width="2"></path></g><g transform="translate(742 261)"><path d="M0 -13L11.3 -6.5L11.3 6.5L0 13L-11.3 6.5L-11.3 -6.5Z" stroke="#297EA6" fill="none" stroke-width="2"></path></g><g transform="translate(815 464)"><path d="M0 -23L19.9 -11.5L19.9 11.5L0 23L-19.9 11.5L-19.9 -11.5Z" stroke="#297EA6" fill="none" stroke-width="2"></path></g><g transform="translate(235 69)"><path d="M0 -24L20.8 -12L20.8 12L0 24L-20.8 12L-20.8 -12Z" stroke="#297EA6" fill="none" stroke-width="2"></path></g><g transform="translate(567 328)"><path d="M0 -15L13 -7.5L13 7.5L0 15L-13 7.5L-13 -7.5Z" stroke="#297EA6" fill="none" stroke-width="2"></path></g><g transform="translate(533 147)"><path d="M0 -16L13.9 -8L13.9 8L0 16L-13.9 8L-13.9 -8Z" stroke="#297EA6" fill="none" stroke-width="2"></path></g><g transform="translate(293 108)"><path d="M0 -21L18.2 -10.5L18.2 10.5L0 21L-18.2 10.5L-18.2 -10.5Z" stroke="#297EA6" fill="none" stroke-width="2"></path></g><g transform="translate(749 548)"><path d="M0 -23L19.9 -11.5L19.9 11.5L0 23L-19.9 11.5L-19.9 -11.5Z" stroke="#297EA6" fill="none" stroke-width="2"></path></g><g transform="translate(151 207)"><path d="M0 -16L13.9 -8L13.9 8L0 16L-13.9 8L-13.9 -8Z" stroke="#297EA6" fill="none" stroke-width="2"></path></g><g transform="translate(179 118)"><path d="M0 -25L21.7 -12.5L21.7 12.5L0 25L-21.7 12.5L-21.7 -12.5Z" stroke="#297EA6" fill="none" stroke-width="2"></path></g><g transform="translate(250 7)"><path d="M0 -24L20.8 -12L20.8 12L0 24L-20.8 12L-20.8 -12Z" stroke="#297EA6" fill="none" stroke-width="2"></path></g><g transform="translate(356 516)"><path d="M0 -22L19.1 -11L19.1 11L0 22L-19.1 11L-19.1 -11Z" stroke="#297EA6" fill="none" stroke-width="2"></path></g><g transform="translate(687 305)"><path d="M0 -18L15.6 -9L15.6 9L0 18L-15.6 9L-15.6 -9Z" stroke="#297EA6" fill="none" stroke-width="2"></path></g><g transform="translate(544 45)"><path d="M0 -18L15.6 -9L15.6 9L0 18L-15.6 9L-15.6 -9Z" stroke="#297EA6" fill="none" stroke-width="2"></path></g><g transform="translate(142 549)"><path d="M0 -22L19.1 -11L19.1 11L0 22L-19.1 11L-19.1 -11Z" stroke="#297EA6" fill="none" stroke-width="2"></path></g><g transform="translate(775 306)"><path d="M0 -21L18.2 -10.5L18.2 10.5L0 21L-18.2 10.5L-18.2 -10.5Z" stroke="#297EA6" fill="none" stroke-width="2"></path></g><g transform="translate(386 193)"><path d="M0 -24L20.8 -12L20.8 12L0 24L-20.8 12L-20.8 -12Z" stroke="#297EA6" fill="none" stroke-width="2"></path></g><g transform="translate(82 565)"><path d="M0 -16L13.9 -8L13.9 8L0 16L-13.9 8L-13.9 -8Z" stroke="#297EA6" fill="none" stroke-width="2"></path></g><g transform="translate(52 400)"><path d="M0 -24L20.8 -12L20.8 12L0 24L-20.8 12L-20.8 -12Z" stroke="#297EA6" fill="none" stroke-width="2"></path></g><g transform="translate(884 84)"><path d="M0 -20L17.3 -10L17.3 10L0 20L-17.3 10L-17.3 -10Z" stroke="#297EA6" fill="none" stroke-width="2"></path></g><g transform="translate(838 384)"><path d="M0 -18L15.6 -9L15.6 9L0 18L-15.6 9L-15.6 -9Z" stroke="#297EA6" fill="none" stroke-width="2"></path></g><g transform="translate(292 375)"><path d="M0 -12L10.4 -6L10.4 6L0 12L-10.4 6L-10.4 -6Z" stroke="#297EA6" fill="none" stroke-width="2"></path></g><g transform="translate(214 197)"><path d="M0 -25L21.7 -12.5L21.7 12.5L0 25L-21.7 12.5L-21.7 -12.5Z" stroke="#297EA6" fill="none" stroke-width="2"></path></g><g transform="translate(430 507)"><path d="M0 -22L19.1 -11L19.1 11L0 22L-19.1 11L-19.1 -11Z" stroke="#297EA6" fill="none" stroke-width="2"></path></g><g transform="translate(644 122)"><path d="M0 -13L11.3 -6.5L11.3 6.5L0 13L-11.3 6.5L-11.3 -6.5Z" stroke="#297EA6" fill="none" stroke-width="2"></path></g><g transform="translate(126 419)"><path d="M0 -25L21.7 -12.5L21.7 12.5L0 25L-21.7 12.5L-21.7 -12.5Z" stroke="#297EA6" fill="none" stroke-width="2"></path></g><g transform="translate(303 428)"><path d="M0 -14L12.1 -7L12.1 7L0 14L-12.1 7L-12.1 -7Z" stroke="#297EA6" fill="none" stroke-width="2"></path></g><g transform="translate(877 599)"><path d="M0 -17L14.7 -8.5L14.7 8.5L0 17L-14.7 8.5L-14.7 -8.5Z" stroke="#297EA6" fill="none" stroke-width="2"></path></g><g transform="translate(412 383)"><path d="M0 -11L9.5 -5.5L9.5 5.5L0 11L-9.5 5.5L-9.5 -5.5Z" stroke="#297EA6" fill="none" stroke-width="2"></path></g><g transform="translate(682 395)"><path d="M0 -17L14.7 -8.5L14.7 8.5L0 17L-14.7 8.5L-14.7 -8.5Z" stroke="#297EA6" fill="none" stroke-width="2"></path></g><g transform="translate(88 277)"><path d="M0 -20L17.3 -10L17.3 10L0 20L-17.3 10L-17.3 -10Z" stroke="#297EA6" fill="none" stroke-width="2"></path></g><g transform="translate(128 480)"><path d="M0 -16L13.9 -8L13.9 8L0 16L-13.9 8L-13.9 -8Z" stroke="#297EA6" fill="none" stroke-width="2"></path></g><g transform="translate(763 196)"><path d="M0 -13L11.3 -6.5L11.3 6.5L0 13L-11.3 6.5L-11.3 -6.5Z" stroke="#297EA6" fill="none" stroke-width="2"></path></g><g transform="translate(560 485)"><path d="M0 -11L9.5 -5.5L9.5 5.5L0 11L-9.5 5.5L-9.5 -5.5Z" stroke="#297EA6" fill="none" stroke-width="2"></path></g><g transform="translate(209 543)"><path d="M0 -20L17.3 -10L17.3 10L0 20L-17.3 10L-17.3 -10Z" stroke="#297EA6" fill="none" stroke-width="2"></path></g><g transform="translate(698 523)"><path d="M0 -20L17.3 -10L17.3 10L0 20L-17.3 10L-17.3 -10Z" stroke="#297EA6" fill="none" stroke-width="2"></path></g><g transform="translate(390 135)"><path d="M0 -14L12.1 -7L12.1 7L0 14L-12.1 7L-12.1 -7Z" stroke="#297EA6" fill="none" stroke-width="2"></path></g><g transform="translate(823 586)"><path d="M0 -22L19.1 -11L19.1 11L0 22L-19.1 11L-19.1 -11Z" stroke="#297EA6" fill="none" stroke-width="2"></path></g><g transform="translate(744 139)"><path d="M0 -25L21.7 -12.5L21.7 12.5L0 25L-21.7 12.5L-21.7 -12.5Z" stroke="#297EA6" fill="none" stroke-width="2"></path></g><g transform="translate(795 29)"><path d="M0 -14L12.1 -7L12.1 7L0 14L-12.1 7L-12.1 -7Z" stroke="#297EA6" fill="none" stroke-width="2"></path></g><g transform="translate(400 15)"><path d="M0 -14L12.1 -7L12.1 7L0 14L-12.1 7L-12.1 -7Z" stroke="#297EA6" fill="none" stroke-width="2"></path></g><g transform="translate(620 186)"><path d="M0 -19L16.5 -9.5L16.5 9.5L0 19L-16.5 9.5L-16.5 -9.5Z" stroke="#297EA6" fill="none" stroke-width="2"></path></g><g transform="translate(19 126)"><path d="M0 -13L11.3 -6.5L11.3 6.5L0 13L-11.3 6.5L-11.3 -6.5Z" stroke="#297EA6" fill="none" stroke-width="2"></path></g><g transform="translate(26 185)"><path d="M0 -13L11.3 -6.5L11.3 6.5L0 13L-11.3 6.5L-11.3 -6.5Z" stroke="#297EA6" fill="none" stroke-width="2"></path></g><g transform="translate(865 143)"><path d="M0 -15L13 -7.5L13 7.5L0 15L-13 7.5L-13 -7.5Z" stroke="#297EA6" fill="none" stroke-width="2"></path></g><g transform="translate(818 257)"><path d="M0 -20L17.3 -10L17.3 10L0 20L-17.3 10L-17.3 -10Z" stroke="#297EA6" fill="none" stroke-width="2"></path></g><g transform="translate(563 206)"><path d="M0 -19L16.5 -9.5L16.5 9.5L0 19L-16.5 9.5L-16.5 -9.5Z" stroke="#297EA6" fill="none" stroke-width="2"></path></g><g transform="translate(336 140)"><path d="M0 -12L10.4 -6L10.4 6L0 12L-10.4 6L-10.4 -6Z" stroke="#297EA6" fill="none" stroke-width="2"></path></g><g transform="translate(133 341)"><path d="M0 -10L8.7 -5L8.7 5L0 10L-8.7 5L-8.7 -5Z" stroke="#297EA6" fill="none" stroke-width="2"></path></g><g transform="translate(159 25)"><path d="M0 -19L16.5 -9.5L16.5 9.5L0 19L-16.5 9.5L-16.5 -9.5Z" stroke="#297EA6" fill="none" stroke-width="2"></path></g><g transform="translate(258 235)"><path d="M0 -12L10.4 -6L10.4 6L0 12L-10.4 6L-10.4 -6Z" stroke="#297EA6" fill="none" stroke-width="2"></path></g><g transform="translate(574 97)"><path d="M0 -16L13.9 -8L13.9 8L0 16L-13.9 8L-13.9 -8Z" stroke="#297EA6" fill="none" stroke-width="2"></path></g><g transform="translate(443 450)"><path d="M0 -24L20.8 -12L20.8 12L0 24L-20.8 12L-20.8 -12Z" stroke="#297EA6" fill="none" stroke-width="2"></path></g><g transform="translate(818 183)"><path d="M0 -21L18.2 -10.5L18.2 10.5L0 21L-18.2 10.5L-18.2 -10.5Z" stroke="#297EA6" fill="none" stroke-width="2"></path></g><g transform="translate(33 324)"><path d="M0 -17L14.7 -8.5L14.7 8.5L0 17L-14.7 8.5L-14.7 -8.5Z" stroke="#297EA6" fill="none" stroke-width="2"></path></g><g transform="translate(463 146)"><path d="M0 -19L16.5 -9.5L16.5 9.5L0 19L-16.5 9.5L-16.5 -9.5Z" stroke="#297EA6" fill="none" stroke-width="2"></path></g><g transform="translate(335 4)"><path d="M0 -24L20.8 -12L20.8 12L0 24L-20.8 12L-20.8 -12Z" stroke="#297EA6" fill="none" stroke-width="2"></path></g><g transform="translate(381 278)"><path d="M0 -12L10.4 -6L10.4 6L0 12L-10.4 6L-10.4 -6Z" stroke="#297EA6" fill="none" stroke-width="2"></path></g><g transform="translate(13 550)"><path d="M0 -12L10.4 -6L10.4 6L0 12L-10.4 6L-10.4 -6Z" stroke="#297EA6" fill="none" stroke-width="2"></path></g><g transform="translate(438 74)"><path d="M0 -19L16.5 -9.5L16.5 9.5L0 19L-16.5 9.5L-16.5 -9.5Z" stroke="#297EA6" fill="none" stroke-width="2"></path></g><g transform="translate(76 116)"><path d="M0 -12L10.4 -6L10.4 6L0 12L-10.4 6L-10.4 -6Z" stroke="#297EA6" fill="none" stroke-width="2"></path></g><g transform="translate(339 578)"><path d="M0 -19L16.5 -9.5L16.5 9.5L0 19L-16.5 9.5L-16.5 -9.5Z" stroke="#297EA6" fill="none" stroke-width="2"></path></g><g transform="translate(96 63)"><path d="M0 -12L10.4 -6L10.4 6L0 12L-10.4 6L-10.4 -6Z" stroke="#297EA6" fill="none" stroke-width="2"></path></g><g transform="translate(884 342)"><path d="M0 -19L16.5 -9.5L16.5 9.5L0 19L-16.5 9.5L-16.5 -9.5Z" stroke="#297EA6" fill="none" stroke-width="2"></path></g><g transform="translate(496 8)"><path d="M0 -15L13 -7.5L13 7.5L0 15L-13 7.5L-13 -7.5Z" stroke="#297EA6" fill="none" stroke-width="2"></path></g><g transform="translate(280 538)"><path d="M0 -16L13.9 -8L13.9 8L0 16L-13.9 8L-13.9 -8Z" stroke="#297EA6" fill="none" stroke-width="2"></path></g><g transform="translate(292 481)"><path d="M0 -24L20.8 -12L20.8 12L0 24L-20.8 12L-20.8 -12Z" stroke="#297EA6" fill="none" stroke-width="2"></path></g><g transform="translate(891 535)"><path d="M0 -14L12.1 -7L12.1 7L0 14L-12.1 7L-12.1 -7Z" stroke="#297EA6" fill="none" stroke-width="2"></path></g><g transform="translate(375 69)"><path d="M0 -19L16.5 -9.5L16.5 9.5L0 19L-16.5 9.5L-16.5 -9.5Z" stroke="#297EA6" fill="none" stroke-width="2"></path></g><g transform="translate(90 10)"><path d="M0 -25L21.7 -12.5L21.7 12.5L0 25L-21.7 12.5L-21.7 -12.5Z" stroke="#297EA6" fill="none" stroke-width="2"></path></g><g transform="translate(492 501)"><path d="M0 -13L11.3 -6.5L11.3 6.5L0 13L-11.3 6.5L-11.3 -6.5Z" stroke="#297EA6" fill="none" stroke-width="2"></path></g><g transform="translate(669 73)"><path d="M0 -25L21.7 -12.5L21.7 12.5L0 25L-21.7 12.5L-21.7 -12.5Z" stroke="#297EA6" fill="none" stroke-width="2"></path></g><g transform="translate(593 379)"><path d="M0 -12L10.4 -6L10.4 6L0 12L-10.4 6L-10.4 -6Z" stroke="#297EA6" fill="none" stroke-width="2"></path></g><g transform="translate(496 327)"><path d="M0 -21L18.2 -10.5L18.2 10.5L0 21L-18.2 10.5L-18.2 -10.5Z" stroke="#297EA6" fill="none" stroke-width="2"></path></g><g transform="translate(597 5)"><path d="M0 -20L17.3 -10L17.3 10L0 20L-17.3 10L-17.3 -10Z" stroke="#297EA6" fill="none" stroke-width="2"></path></g><g transform="translate(867 283)"><path d="M0 -16L13.9 -8L13.9 8L0 16L-13.9 8L-13.9 -8Z" stroke="#297EA6" fill="none" stroke-width="2"></path></g><g transform="translate(17 442)"><path d="M0 -23L19.9 -11.5L19.9 11.5L0 23L-19.9 11.5L-19.9 -11.5Z" stroke="#297EA6" fill="none" stroke-width="2"></path></g><g transform="translate(644 444)"><path d="M0 -13L11.3 -6.5L11.3 6.5L0 13L-11.3 6.5L-11.3 -6.5Z" stroke="#297EA6" fill="none" stroke-width="2"></path></g><g transform="translate(704 594)"><path d="M0 -22L19.1 -11L19.1 11L0 22L-19.1 11L-19.1 -11Z" stroke="#297EA6" fill="none" stroke-width="2"></path></g><g transform="translate(559 546)"><path d="M0 -15L13 -7.5L13 7.5L0 15L-13 7.5L-13 -7.5Z" stroke="#297EA6" fill="none" stroke-width="2"></path></g><g transform="translate(513 93)"><path d="M0 -24L20.8 -12L20.8 12L0 24L-20.8 12L-20.8 -12Z" stroke="#297EA6" fill="none" stroke-width="2"></path></g><g transform="translate(608 518)"><path d="M0 -22L19.1 -11L19.1 11L0 22L-19.1 11L-19.1 -11Z" stroke="#297EA6" fill="none" stroke-width="2"></path></g><g transform="translate(204 301)"><path d="M0 -19L16.5 -9.5L16.5 9.5L0 19L-16.5 9.5L-16.5 -9.5Z" stroke="#297EA6" fill="none" stroke-width="2"></path></g><g transform="translate(648 575)"><path d="M0 -24L20.8 -12L20.8 12L0 24L-20.8 12L-20.8 -12Z" stroke="#297EA6" fill="none" stroke-width="2"></path></g><g transform="translate(347 370)"><path d="M0 -17L14.7 -8.5L14.7 8.5L0 17L-14.7 8.5L-14.7 -8.5Z" stroke="#297EA6" fill="none" stroke-width="2"></path></g><g transform="translate(811 113)"><path d="M0 -13L11.3 -6.5L11.3 6.5L0 13L-11.3 6.5L-11.3 -6.5Z" stroke="#297EA6" fill="none" stroke-width="2"></path></g><g transform="translate(144 266)"><path d="M0 -15L13 -7.5L13 7.5L0 15L-13 7.5L-13 -7.5Z" stroke="#297EA6" fill="none" stroke-width="2"></path></g><g transform="translate(435 311)"><path d="M0 -10L8.7 -5L8.7 5L0 10L-8.7 5L-8.7 -5Z" stroke="#297EA6" fill="none" stroke-width="2"></path></g><g transform="translate(3 255)"><path d="M0 -24L20.8 -12L20.8 12L0 24L-20.8 12L-20.8 -12Z" stroke="#297EA6" fill="none" stroke-width="2"></path></g><g transform="translate(761 78)"><path d="M0 -12L10.4 -6L10.4 6L0 12L-10.4 6L-10.4 -6Z" stroke="#297EA6" fill="none" stroke-width="2"></path></g><g transform="translate(526 255)"><path d="M0 -14L12.1 -7L12.1 7L0 14L-12.1 7L-12.1 -7Z" stroke="#297EA6" fill="none" stroke-width="2"></path></g><g transform="translate(882 27)"><path d="M0 -20L17.3 -10L17.3 10L0 20L-17.3 10L-17.3 -10Z" stroke="#297EA6" fill="none" stroke-width="2"></path></g><g transform="translate(335 314)"><path d="M0 -22L19.1 -11L19.1 11L0 22L-19.1 11L-19.1 -11Z" stroke="#297EA6" fill="none" stroke-width="2"></path></g><g transform="translate(628 305)"><path d="M0 -21L18.2 -10.5L18.2 10.5L0 21L-18.2 10.5L-18.2 -10.5Z" stroke="#297EA6" fill="none" stroke-width="2"></path></g><g transform="translate(538 599)"><path d="M0 -12L10.4 -6L10.4 6L0 12L-10.4 6L-10.4 -6Z" stroke="#297EA6" fill="none" stroke-width="2"></path></g><g transform="translate(193 595)"><path d="M0 -23L19.9 -11.5L19.9 11.5L0 23L-19.9 11.5L-19.9 -11.5Z" stroke="#297EA6" fill="none" stroke-width="2"></path></g><g transform="translate(280 172)"><path d="M0 -18L15.6 -9L15.6 9L0 18L-15.6 9L-15.6 -9Z" stroke="#297EA6" fill="none" stroke-width="2"></path></g><g transform="translate(833 328)"><path d="M0 -21L18.2 -10.5L18.2 10.5L0 21L-18.2 10.5L-18.2 -10.5Z" stroke="#297EA6" fill="none" stroke-width="2"></path></g><g transform="translate(561 430)"><path d="M0 -25L21.7 -12.5L21.7 12.5L0 25L-21.7 12.5L-21.7 -12.5Z" stroke="#297EA6" fill="none" stroke-width="2"></path></g><g transform="translate(365 430)"><path d="M0 -21L18.2 -10.5L18.2 10.5L0 21L-18.2 10.5L-18.2 -10.5Z" stroke="#297EA6" fill="none" stroke-width="2"></path></g><g transform="translate(2 370)"><path d="M0 -19L16.5 -9.5L16.5 9.5L0 19L-16.5 9.5L-16.5 -9.5Z" stroke="#297EA6" fill="none" stroke-width="2"></path></g><g transform="translate(76 454)"><path d="M0 -19L16.5 -9.5L16.5 9.5L0 19L-16.5 9.5L-16.5 -9.5Z" stroke="#297EA6" fill="none" stroke-width="2"></path></g><g transform="translate(320 56)"><path d="M0 -19L16.5 -9.5L16.5 9.5L0 19L-16.5 9.5L-16.5 -9.5Z" stroke="#297EA6" fill="none" stroke-width="2"></path></g><g transform="translate(477 275)"><path d="M0 -15L13 -7.5L13 7.5L0 15L-13 7.5L-13 -7.5Z" stroke="#297EA6" fill="none" stroke-width="2"></path></g><g transform="translate(828 517)"><path d="M0 -14L12.1 -7L12.1 7L0 14L-12.1 7L-12.1 -7Z" stroke="#297EA6" fill="none" stroke-width="2"></path></g><g transform="translate(133 155)"><path d="M0 -18L15.6 -9L15.6 9L0 18L-15.6 9L-15.6 -9Z" stroke="#297EA6" fill="none" stroke-width="2"></path></g><g transform="translate(731 340)"><path d="M0 -10L8.7 -5L8.7 5L0 10L-8.7 5L-8.7 -5Z" stroke="#297EA6" fill="none" stroke-width="2"></path></g><g transform="translate(241 128)"><path d="M0 -22L19.1 -11L19.1 11L0 22L-19.1 11L-19.1 -11Z" stroke="#297EA6" fill="none" stroke-width="2"></path></g><g transform="translate(578 273)"><path d="M0 -22L19.1 -11L19.1 11L0 22L-19.1 11L-19.1 -11Z" stroke="#297EA6" fill="none" stroke-width="2"></path></g><g transform="translate(257 593)"><path d="M0 -14L12.1 -7L12.1 7L0 14L-12.1 7L-12.1 -7Z" stroke="#297EA6" fill="none" stroke-width="2"></path></g><g transform="translate(427 251)"><path d="M0 -18L15.6 -9L15.6 9L0 18L-15.6 9L-15.6 -9Z" stroke="#297EA6" fill="none" stroke-width="2"></path></g><g transform="translate(198 490)"><path d="M0 -22L19.1 -11L19.1 11L0 22L-19.1 11L-19.1 -11Z" stroke="#297EA6" fill="none" stroke-width="2"></path></g><g transform="translate(746 8)"><path d="M0 -17L14.7 -8.5L14.7 8.5L0 17L-14.7 8.5L-14.7 -8.5Z" stroke="#297EA6" fill="none" stroke-width="2"></path></g><g transform="translate(5 1)"><path d="M0 -13L11.3 -6.5L11.3 6.5L0 13L-11.3 6.5L-11.3 -6.5Z" stroke="#297EA6" fill="none" stroke-width="2"></path></g></g></svg>