<svg id="visual" viewBox="0 0 900 600" width="900" height="600" xmlns="http://www.w3.org/2000/svg" xmlns:xlink="http://www.w3.org/1999/xlink" version="1.1"><rect width="900" height="600" fill="#260029"></rect><g><g transform="translate(138 364)"><path d="M0 -26.7L26.7 0L0 26.7L-26.7 0Z" fill="none" stroke="#d8ff00" stroke-width="1"></path></g><g transform="translate(76 241)"><path d="M0 -22L22 0L0 22L-22 0Z" fill="none" stroke="#d8ff00" stroke-width="1"></path></g><g transform="translate(810 450)"><path d="M0 -17L17 0L0 17L-17 0Z" stroke="#d8ff00" fill="none" stroke-width="1"></path></g><g transform="translate(516 111)"><path d="M0 -24L24 0L0 24L-24 0Z" stroke="#d8ff00" fill="none" stroke-width="1"></path></g><g transform="translate(290 247)"><path d="M0 -10L10 0L0 10L-10 0Z" stroke="#d8ff00" fill="none" stroke-width="1"></path></g><g transform="translate(303 97)"><path d="M0 -22L22 0L0 22L-22 0Z" stroke="#d8ff00" fill="none" stroke-width="1"></path></g><g transform="translate(566 518)"><path d="M0 -22L22 0L0 22L-22 0Z" stroke="#d8ff00" fill="none" stroke-width="1"></path></g><g transform="translate(225 103)"><path d="M0 -25L25 0L0 25L-25 0Z" stroke="#d8ff00" fill="none" stroke-width="1"></path></g><g transform="translate(253 307)"><path d="M0 -23L23 0L0 23L-23 0Z" stroke="#d8ff00" fill="none" stroke-width="1"></path></g><g transform="translate(675 402)"><path d="M0 -11L11 0L0 11L-11 0Z" stroke="#d8ff00" fill="none" stroke-width="1"></path></g><g transform="translate(117 172)"><path d="M0 -25L25 0L0 25L-25 0Z" stroke="#d8ff00" fill="none" stroke-width="1"></path></g><g transform="translate(729 125)"><path d="M0 -10L10 0L0 10L-10 0Z" stroke="#d8ff00" fill="none" stroke-width="1"></path></g><g transform="translate(699 313)"><path d="M0 -19L19 0L0 19L-19 0Z" stroke="#d8ff00" fill="none" stroke-width="1"></path></g><g transform="translate(466 521)"><path d="M0 -13L13 0L0 13L-13 0Z" stroke="#d8ff00" fill="none" stroke-width="1"></path></g><g transform="translate(622 167)"><path d="M0 -20L20 0L0 20L-20 0Z" stroke="#d8ff00" fill="none" stroke-width="1"></path></g><g transform="translate(849 585)"><path d="M0 -21L21 0L0 21L-21 0Z" stroke="#d8ff00" fill="none" stroke-width="1"></path></g><g transform="translate(131 566)"><path d="M0 -22L22 0L0 22L-22 0Z" stroke="#d8ff00" fill="none" stroke-width="1"></path></g><g transform="translate(629 109)"><path d="M0 -16L16 0L0 16L-16 0Z" stroke="#d8ff00" fill="none" stroke-width="1"></path></g><g transform="translate(23 460)"><path d="M0 -18L18 0L0 18L-18 0Z" stroke="#d8ff00" fill="none" stroke-width="1"></path></g><g transform="translate(428 386)"><path d="M0 -23L23 0L0 23L-23 0Z" stroke="#d8ff00" fill="none" stroke-width="1"></path></g><g transform="translate(133 265)"><path d="M0 -18L18 0L0 18L-18 0Z" stroke="#d8ff00" fill="none" stroke-width="1"></path></g><g transform="translate(177 30)"><path d="M0 -25L25 0L0 25L-25 0Z" stroke="#d8ff00" fill="none" stroke-width="1"></path></g><g transform="translate(351 70)"><path d="M0 -16L16 0L0 16L-16 0Z" stroke="#d8ff00" fill="none" stroke-width="1"></path></g><g transform="translate(538 9)"><path d="M0 -22L22 0L0 22L-22 0Z" stroke="#d8ff00" fill="none" stroke-width="1"></path></g><g transform="translate(499 215)"><path d="M0 -11L11 0L0 11L-11 0Z" stroke="#d8ff00" fill="none" stroke-width="1"></path></g><g transform="translate(489 373)"><path d="M0 -19L19 0L0 19L-19 0Z" stroke="#d8ff00" fill="none" stroke-width="1"></path></g><g transform="translate(796 117)"><path d="M0 -20L20 0L0 20L-20 0Z" stroke="#d8ff00" fill="none" stroke-width="1"></path></g><g transform="translate(776 234)"><path d="M0 -12L12 0L0 12L-12 0Z" stroke="#d8ff00" fill="none" stroke-width="1"></path></g><g transform="translate(161 139)"><path d="M0 -19L19 0L0 19L-19 0Z" stroke="#d8ff00" fill="none" stroke-width="1"></path></g><g transform="translate(380 336)"><path d="M0 -16L16 0L0 16L-16 0Z" stroke="#d8ff00" fill="none" stroke-width="1"></path></g><g transform="translate(548 258)"><path d="M0 -24L24 0L0 24L-24 0Z" stroke="#d8ff00" fill="none" stroke-width="1"></path></g><g transform="translate(610 36)"><path d="M0 -13L13 0L0 13L-13 0Z" stroke="#d8ff00" fill="none" stroke-width="1"></path></g><g transform="translate(354 396)"><path d="M0 -16L16 0L0 16L-16 0Z" stroke="#d8ff00" fill="none" stroke-width="1"></path></g><g transform="translate(513 322)"><path d="M0 -17L17 0L0 17L-17 0Z" stroke="#d8ff00" fill="none" stroke-width="1"></path></g><g transform="translate(14 285)"><path d="M0 -19L19 0L0 19L-19 0Z" stroke="#d8ff00" fill="none" stroke-width="1"></path></g><g transform="translate(611 302)"><path d="M0 -22L22 0L0 22L-22 0Z" stroke="#d8ff00" fill="none" stroke-width="1"></path></g><g transform="translate(79 428)"><path d="M0 -23L23 0L0 23L-23 0Z" stroke="#d8ff00" fill="none" stroke-width="1"></path></g><g transform="translate(92 71)"><path d="M0 -12L12 0L0 12L-12 0Z" stroke="#d8ff00" fill="none" stroke-width="1"></path></g><g transform="translate(636 490)"><path d="M0 -22L22 0L0 22L-22 0Z" stroke="#d8ff00" fill="none" stroke-width="1"></path></g><g transform="translate(845 11)"><path d="M0 -15L15 0L0 15L-15 0Z" stroke="#d8ff00" fill="none" stroke-width="1"></path></g><g transform="translate(242 156)"><path d="M0 -23L23 0L0 23L-23 0Z" stroke="#d8ff00" fill="none" stroke-width="1"></path></g><g transform="translate(286 374)"><path d="M0 -19L19 0L0 19L-19 0Z" stroke="#d8ff00" fill="none" stroke-width="1"></path></g><g transform="translate(336 7)"><path d="M0 -10L10 0L0 10L-10 0Z" stroke="#d8ff00" fill="none" stroke-width="1"></path></g><g transform="translate(740 444)"><path d="M0 -13L13 0L0 13L-13 0Z" stroke="#d8ff00" fill="none" stroke-width="1"></path></g><g transform="translate(166 494)"><path d="M0 -21L21 0L0 21L-21 0Z" stroke="#d8ff00" fill="none" stroke-width="1"></path></g><g transform="translate(882 482)"><path d="M0 -25L25 0L0 25L-25 0Z" stroke="#d8ff00" fill="none" stroke-width="1"></path></g><g transform="translate(430 16)"><path d="M0 -18L18 0L0 18L-18 0Z" stroke="#d8ff00" fill="none" stroke-width="1"></path></g><g transform="translate(878 176)"><path d="M0 -20L20 0L0 20L-20 0Z" stroke="#d8ff00" fill="none" stroke-width="1"></path></g><g transform="translate(694 558)"><path d="M0 -17L17 0L0 17L-17 0Z" stroke="#d8ff00" fill="none" stroke-width="1"></path></g><g transform="translate(714 232)"><path d="M0 -21L21 0L0 21L-21 0Z" stroke="#d8ff00" fill="none" stroke-width="1"></path></g><g transform="translate(791 597)"><path d="M0 -25L25 0L0 25L-25 0Z" stroke="#d8ff00" fill="none" stroke-width="1"></path></g><g transform="translate(5 223)"><path d="M0 -13L13 0L0 13L-13 0Z" stroke="#d8ff00" fill="none" stroke-width="1"></path></g><g transform="translate(731 363)"><path d="M0 -13L13 0L0 13L-13 0Z" stroke="#d8ff00" fill="none" stroke-width="1"></path></g><g transform="translate(398 525)"><path d="M0 -13L13 0L0 13L-13 0Z" stroke="#d8ff00" fill="none" stroke-width="1"></path></g><g transform="translate(745 286)"><path d="M0 -18L18 0L0 18L-18 0Z" stroke="#d8ff00" fill="none" stroke-width="1"></path></g><g transform="translate(289 554)"><path d="M0 -17L17 0L0 17L-17 0Z" stroke="#d8ff00" fill="none" stroke-width="1"></path></g><g transform="translate(57 511)"><path d="M0 -17L17 0L0 17L-17 0Z" stroke="#d8ff00" fill="none" stroke-width="1"></path></g><g transform="translate(458 322)"><path d="M0 -15L15 0L0 15L-15 0Z" stroke="#d8ff00" fill="none" stroke-width="1"></path></g><g transform="translate(37 27)"><path d="M0 -11L11 0L0 11L-11 0Z" stroke="#d8ff00" fill="none" stroke-width="1"></path></g><g transform="translate(743 524)"><path d="M0 -10L10 0L0 10L-10 0Z" stroke="#d8ff00" fill="none" stroke-width="1"></path></g><g transform="translate(683 13)"><path d="M0 -17L17 0L0 17L-17 0Z" stroke="#d8ff00" fill="none" stroke-width="1"></path></g><g transform="translate(211 456)"><path d="M0 -12L12 0L0 12L-12 0Z" stroke="#d8ff00" fill="none" stroke-width="1"></path></g><g transform="translate(398 179)"><path d="M0 -12L12 0L0 12L-12 0Z" stroke="#d8ff00" fill="none" stroke-width="1"></path></g><g transform="translate(828 389)"><path d="M0 -13L13 0L0 13L-13 0Z" stroke="#d8ff00" fill="none" stroke-width="1"></path></g><g transform="translate(188 583)"><path d="M0 -10L10 0L0 10L-10 0Z" stroke="#d8ff00" fill="none" stroke-width="1"></path></g><g transform="translate(541 392)"><path d="M0 -22L22 0L0 22L-22 0Z" stroke="#d8ff00" fill="none" stroke-width="1"></path></g><g transform="translate(411 473)"><path d="M0 -18L18 0L0 18L-18 0Z" stroke="#d8ff00" fill="none" stroke-width="1"></path></g><g transform="translate(610 357)"><path d="M0 -18L18 0L0 18L-18 0Z" stroke="#d8ff00" fill="none" stroke-width="1"></path></g><g transform="translate(834 252)"><path d="M0 -15L15 0L0 15L-15 0Z" stroke="#d8ff00" fill="none" stroke-width="1"></path></g><g transform="translate(425 120)"><path d="M0 -20L20 0L0 20L-20 0Z" stroke="#d8ff00" fill="none" stroke-width="1"></path></g><g transform="translate(857 118)"><path d="M0 -14L14 0L0 14L-14 0Z" stroke="#d8ff00" fill="none" stroke-width="1"></path></g><g transform="translate(518 454)"><path d="M0 -21L21 0L0 21L-21 0Z" stroke="#d8ff00" fill="none" stroke-width="1"></path></g><g transform="translate(280 459)"><path d="M0 -17L17 0L0 17L-17 0Z" stroke="#d8ff00" fill="none" stroke-width="1"></path></g><g transform="translate(480 153)"><path d="M0 -18L18 0L0 18L-18 0Z" stroke="#d8ff00" fill="none" stroke-width="1"></path></g><g transform="translate(397 593)"><path d="M0 -19L19 0L0 19L-19 0Z" stroke="#d8ff00" fill="none" stroke-width="1"></path></g><g transform="translate(860 315)"><path d="M0 -17L17 0L0 17L-17 0Z" stroke="#d8ff00" fill="none" stroke-width="1"></path></g><g transform="translate(636 232)"><path d="M0 -16L16 0L0 16L-16 0Z" stroke="#d8ff00" fill="none" stroke-width="1"></path></g><g transform="translate(17 591)"><path d="M0 -18L18 0L0 18L-18 0Z" stroke="#d8ff00" fill="none" stroke-width="1"></path></g><g transform="translate(679 191)"><path d="M0 -25L25 0L0 25L-25 0Z" stroke="#d8ff00" fill="none" stroke-width="1"></path></g><g transform="translate(59 345)"><path d="M0 -20L20 0L0 20L-20 0Z" stroke="#d8ff00" fill="none" stroke-width="1"></path></g><g transform="translate(2 406)"><path d="M0 -15L15 0L0 15L-15 0Z" stroke="#d8ff00" fill="none" stroke-width="1"></path></g><g transform="translate(570 147)"><path d="M0 -10L10 0L0 10L-10 0Z" stroke="#d8ff00" fill="none" stroke-width="1"></path></g><g transform="translate(335 189)"><path d="M0 -21L21 0L0 21L-21 0Z" stroke="#d8ff00" fill="none" stroke-width="1"></path></g><g transform="translate(881 417)"><path d="M0 -25L25 0L0 25L-25 0Z" stroke="#d8ff00" fill="none" stroke-width="1"></path></g><g transform="translate(591 420)"><path d="M0 -16L16 0L0 16L-16 0Z" stroke="#d8ff00" fill="none" stroke-width="1"></path></g><g transform="translate(148 79)"><path d="M0 -21L21 0L0 21L-21 0Z" stroke="#d8ff00" fill="none" stroke-width="1"></path></g><g transform="translate(740 35)"><path d="M0 -20L20 0L0 20L-20 0Z" stroke="#d8ff00" fill="none" stroke-width="1"></path></g><g transform="translate(772 167)"><path d="M0 -17L17 0L0 17L-17 0Z" stroke="#d8ff00" fill="none" stroke-width="1"></path></g><g transform="translate(69 142)"><path d="M0 -10L10 0L0 10L-10 0Z" stroke="#d8ff00" fill="none" stroke-width="1"></path></g><g transform="translate(278 41)"><path d="M0 -22L22 0L0 22L-22 0Z" stroke="#d8ff00" fill="none" stroke-width="1"></path></g><g transform="translate(572 583)"><path d="M0 -15L15 0L0 15L-15 0Z" stroke="#d8ff00" fill="none" stroke-width="1"></path></g><g transform="translate(636 591)"><path d="M0 -18L18 0L0 18L-18 0Z" stroke="#d8ff00" fill="none" stroke-width="1"></path></g><g transform="translate(128 455)"><path d="M0 -22L22 0L0 22L-22 0Z" stroke="#d8ff00" fill="none" stroke-width="1"></path></g><g transform="translate(97 6)"><path d="M0 -24L24 0L0 24L-24 0Z" stroke="#d8ff00" fill="none" stroke-width="1"></path></g><g transform="translate(182 401)"><path d="M0 -20L20 0L0 20L-20 0Z" stroke="#d8ff00" fill="none" stroke-width="1"></path></g><g transform="translate(393 276)"><path d="M0 -15L15 0L0 15L-15 0Z" stroke="#d8ff00" fill="none" stroke-width="1"></path></g><g transform="translate(894 79)"><path d="M0 -16L16 0L0 16L-16 0Z" stroke="#d8ff00" fill="none" stroke-width="1"></path></g><g transform="translate(485 45)"><path d="M0 -24L24 0L0 24L-24 0Z" stroke="#d8ff00" fill="none" stroke-width="1"></path></g><g transform="translate(191 241)"><path d="M0 -23L23 0L0 23L-23 0Z" stroke="#d8ff00" fill="none" stroke-width="1"></path></g><g transform="translate(481 590)"><path d="M0 -21L21 0L0 21L-21 0Z" stroke="#d8ff00" fill="none" stroke-width="1"></path></g><g transform="translate(170 304)"><path d="M0 -13L13 0L0 13L-13 0Z" stroke="#d8ff00" fill="none" stroke-width="1"></path></g><g transform="translate(691 494)"><path d="M0 -10L10 0L0 10L-10 0Z" stroke="#d8ff00" fill="none" stroke-width="1"></path></g><g transform="translate(309 504)"><path d="M0 -12L12 0L0 12L-12 0Z" stroke="#d8ff00" fill="none" stroke-width="1"></path></g><g transform="translate(222 519)"><path d="M0 -14L14 0L0 14L-14 0Z" stroke="#d8ff00" fill="none" stroke-width="1"></path></g><g transform="translate(464 431)"><path d="M0 -21L21 0L0 21L-21 0Z" stroke="#d8ff00" fill="none" stroke-width="1"></path></g><g transform="translate(897 245)"><path d="M0 -25L25 0L0 25L-25 0Z" stroke="#d8ff00" fill="none" stroke-width="1"></path></g><g transform="translate(789 333)"><path d="M0 -10L10 0L0 10L-10 0Z" stroke="#d8ff00" fill="none" stroke-width="1"></path></g><g transform="translate(812 62)"><path d="M0 -23L23 0L0 23L-23 0Z" stroke="#d8ff00" fill="none" stroke-width="1"></path></g><g transform="translate(33 93)"><path d="M0 -14L14 0L0 14L-14 0Z" stroke="#d8ff00" fill="none" stroke-width="1"></path></g><g transform="translate(75 577)"><path d="M0 -16L16 0L0 16L-16 0Z" stroke="#d8ff00" fill="none" stroke-width="1"></path></g><g transform="translate(471 262)"><path d="M0 -25L25 0L0 25L-25 0Z" stroke="#d8ff00" fill="none" stroke-width="1"></path></g><g transform="translate(555 74)"><path d="M0 -22L22 0L0 22L-22 0Z" stroke="#d8ff00" fill="none" stroke-width="1"></path></g><g transform="translate(354 472)"><path d="M0 -22L22 0L0 22L-22 0Z" stroke="#d8ff00" fill="none" stroke-width="1"></path></g><g transform="translate(13 157)"><path d="M0 -17L17 0L0 17L-17 0Z" stroke="#d8ff00" fill="none" stroke-width="1"></path></g><g transform="translate(326 333)"><path d="M0 -10L10 0L0 10L-10 0Z" stroke="#d8ff00" fill="none" stroke-width="1"></path></g><g transform="translate(407 65)"><path d="M0 -25L25 0L0 25L-25 0Z" stroke="#d8ff00" fill="none" stroke-width="1"></path></g><g transform="translate(435 223)"><path d="M0 -23L23 0L0 23L-23 0Z" stroke="#d8ff00" fill="none" stroke-width="1"></path></g><g transform="translate(359 124)"><path d="M0 -20L20 0L0 20L-20 0Z" stroke="#d8ff00" fill="none" stroke-width="1"></path></g><g transform="translate(685 75)"><path d="M0 -20L20 0L0 20L-20 0Z" stroke="#d8ff00" fill="none" stroke-width="1"></path></g><g transform="translate(877 539)"><path d="M0 -18L18 0L0 18L-18 0Z" stroke="#d8ff00" fill="none" stroke-width="1"></path></g><g transform="translate(797 514)"><path d="M0 -18L18 0L0 18L-18 0Z" stroke="#d8ff00" fill="none" stroke-width="1"></path></g><g transform="translate(210 346)"><path d="M0 -21L21 0L0 21L-21 0Z" stroke="#d8ff00" fill="none" stroke-width="1"></path></g><g transform="translate(343 590)"><path d="M0 -23L23 0L0 23L-23 0Z" stroke="#d8ff00" fill="none" stroke-width="1"></path></g><g transform="translate(107 312)"><path d="M0 -25L25 0L0 25L-25 0Z" stroke="#d8ff00" fill="none" stroke-width="1"></path></g><g transform="translate(8 537)"><path d="M0 -21L21 0L0 21L-21 0Z" stroke="#d8ff00" fill="none" stroke-width="1"></path></g><g transform="translate(115 514)"><path d="M0 -13L13 0L0 13L-13 0Z" stroke="#d8ff00" fill="none" stroke-width="1"></path></g><g transform="translate(515 546)"><path d="M0 -23L23 0L0 23L-23 0Z" stroke="#d8ff00" fill="none" stroke-width="1"></path></g><g transform="translate(226 6)"><path d="M0 -23L23 0L0 23L-23 0Z" stroke="#d8ff00" fill="none" stroke-width="1"></path></g><g transform="translate(237 396)"><path d="M0 -11L11 0L0 11L-11 0Z" stroke="#d8ff00" fill="none" stroke-width="1"></path></g><g transform="translate(255 598)"><path d="M0 -16L16 0L0 16L-16 0Z" stroke="#d8ff00" fill="none" stroke-width="1"></path></g><g transform="translate(192 184)"><path d="M0 -25L25 0L0 25L-25 0Z" stroke="#d8ff00" fill="none" stroke-width="1"></path></g><g transform="translate(825 181)"><path d="M0 -12L12 0L0 12L-12 0Z" stroke="#d8ff00" fill="none" stroke-width="1"></path></g><g transform="translate(895 360)"><path d="M0 -10L10 0L0 10L-10 0Z" stroke="#d8ff00" fill="none" stroke-width="1"></path></g><g transform="translate(549 197)"><path d="M0 -17L17 0L0 17L-17 0Z" stroke="#d8ff00" fill="none" stroke-width="1"></path></g><g transform="translate(3 349)"><path d="M0 -10L10 0L0 10L-10 0Z" stroke="#d8ff00" fill="none" stroke-width="1"></path></g></g></svg>