<svg id="visual" viewBox="0 0 900 600" width="900" height="600" xmlns="http://www.w3.org/2000/svg" xmlns:xlink="http://www.w3.org/1999/xlink" version="1.1"><rect width="900" height="600" fill="#291600"></rect><g><g transform="translate(469 1)"><path d="M0 -26.7L23.1 13.3L-23.1 13.3Z" fill="none" stroke="#ff00b9" stroke-width="1"></path></g><g transform="translate(18 241)"><path d="M0 -22L19.1 11L-19.1 11Z" fill="none" stroke="#ff00b9" stroke-width="1"></path></g><g transform="translate(275 427)"><path d="M0 -21L18.2 10.5L-18.2 10.5Z" stroke="#ff00b9" fill="none" stroke-width="1"></path></g><g transform="translate(244 215)"><path d="M0 -11L9.5 5.5L-9.5 5.5Z" stroke="#ff00b9" fill="none" stroke-width="1"></path></g><g transform="translate(106 62)"><path d="M0 -24L20.8 12L-20.8 12Z" stroke="#ff00b9" fill="none" stroke-width="1"></path></g><g transform="translate(105 360)"><path d="M0 -23L19.9 11.5L-19.9 11.5Z" stroke="#ff00b9" fill="none" stroke-width="1"></path></g><g transform="translate(458 484)"><path d="M0 -24L20.8 12L-20.8 12Z" stroke="#ff00b9" fill="none" stroke-width="1"></path></g><g transform="translate(158 454)"><path d="M0 -20L17.3 10L-17.3 10Z" stroke="#ff00b9" fill="none" stroke-width="1"></path></g><g transform="translate(891 86)"><path d="M0 -18L15.6 9L-15.6 9Z" stroke="#ff00b9" fill="none" stroke-width="1"></path></g><g transform="translate(769 226)"><path d="M0 -12L10.4 6L-10.4 6Z" stroke="#ff00b9" fill="none" stroke-width="1"></path></g><g transform="translate(511 523)"><path d="M0 -20L17.3 10L-17.3 10Z" stroke="#ff00b9" fill="none" stroke-width="1"></path></g><g transform="translate(14 589)"><path d="M0 -22L19.1 11L-19.1 11Z" stroke="#ff00b9" fill="none" stroke-width="1"></path></g><g transform="translate(91 460)"><path d="M0 -12L10.4 6L-10.4 6Z" stroke="#ff00b9" fill="none" stroke-width="1"></path></g><g transform="translate(169 22)"><path d="M0 -22L19.1 11L-19.1 11Z" stroke="#ff00b9" fill="none" stroke-width="1"></path></g><g transform="translate(728 513)"><path d="M0 -18L15.6 9L-15.6 9Z" stroke="#ff00b9" fill="none" stroke-width="1"></path></g><g transform="translate(528 432)"><path d="M0 -17L14.7 8.5L-14.7 8.5Z" stroke="#ff00b9" fill="none" stroke-width="1"></path></g><g transform="translate(423 323)"><path d="M0 -25L21.7 12.5L-21.7 12.5Z" stroke="#ff00b9" fill="none" stroke-width="1"></path></g><g transform="translate(372 580)"><path d="M0 -18L15.6 9L-15.6 9Z" stroke="#ff00b9" fill="none" stroke-width="1"></path></g><g transform="translate(470 428)"><path d="M0 -23L19.9 11.5L-19.9 11.5Z" stroke="#ff00b9" fill="none" stroke-width="1"></path></g><g transform="translate(344 9)"><path d="M0 -24L20.8 12L-20.8 12Z" stroke="#ff00b9" fill="none" stroke-width="1"></path></g><g transform="translate(546 69)"><path d="M0 -12L10.4 6L-10.4 6Z" stroke="#ff00b9" fill="none" stroke-width="1"></path></g><g transform="translate(860 147)"><path d="M0 -23L19.9 11.5L-19.9 11.5Z" stroke="#ff00b9" fill="none" stroke-width="1"></path></g><g transform="translate(758 429)"><path d="M0 -25L21.7 12.5L-21.7 12.5Z" stroke="#ff00b9" fill="none" stroke-width="1"></path></g><g transform="translate(61 130)"><path d="M0 -11L9.5 5.5L-9.5 5.5Z" stroke="#ff00b9" fill="none" stroke-width="1"></path></g><g transform="translate(273 111)"><path d="M0 -25L21.7 12.5L-21.7 12.5Z" stroke="#ff00b9" fill="none" stroke-width="1"></path></g><g transform="translate(243 559)"><path d="M0 -17L14.7 8.5L-14.7 8.5Z" stroke="#ff00b9" fill="none" stroke-width="1"></path></g><g transform="translate(893 293)"><path d="M0 -16L13.9 8L-13.9 8Z" stroke="#ff00b9" fill="none" stroke-width="1"></path></g><g transform="translate(196 160)"><path d="M0 -13L11.3 6.5L-11.3 6.5Z" stroke="#ff00b9" fill="none" stroke-width="1"></path></g><g transform="translate(282 509)"><path d="M0 -20L17.3 10L-17.3 10Z" stroke="#ff00b9" fill="none" stroke-width="1"></path></g><g transform="translate(682 227)"><path d="M0 -15L13 7.5L-13 7.5Z" stroke="#ff00b9" fill="none" stroke-width="1"></path></g><g transform="translate(127 255)"><path d="M0 -25L21.7 12.5L-21.7 12.5Z" stroke="#ff00b9" fill="none" stroke-width="1"></path></g><g transform="translate(8 18)"><path d="M0 -17L14.7 8.5L-14.7 8.5Z" stroke="#ff00b9" fill="none" stroke-width="1"></path></g><g transform="translate(599 88)"><path d="M0 -18L15.6 9L-15.6 9Z" stroke="#ff00b9" fill="none" stroke-width="1"></path></g><g transform="translate(471 112)"><path d="M0 -22L19.1 11L-19.1 11Z" stroke="#ff00b9" fill="none" stroke-width="1"></path></g><g transform="translate(714 52)"><path d="M0 -10L8.7 5L-8.7 5Z" stroke="#ff00b9" fill="none" stroke-width="1"></path></g><g transform="translate(294 43)"><path d="M0 -18L15.6 9L-15.6 9Z" stroke="#ff00b9" fill="none" stroke-width="1"></path></g><g transform="translate(330 254)"><path d="M0 -18L15.6 9L-15.6 9Z" stroke="#ff00b9" fill="none" stroke-width="1"></path></g><g transform="translate(214 261)"><path d="M0 -15L13 7.5L-13 7.5Z" stroke="#ff00b9" fill="none" stroke-width="1"></path></g><g transform="translate(799 79)"><path d="M0 -23L19.9 11.5L-19.9 11.5Z" stroke="#ff00b9" fill="none" stroke-width="1"></path></g><g transform="translate(163 559)"><path d="M0 -19L16.5 9.5L-16.5 9.5Z" stroke="#ff00b9" fill="none" stroke-width="1"></path></g><g transform="translate(628 147)"><path d="M0 -12L10.4 6L-10.4 6Z" stroke="#ff00b9" fill="none" stroke-width="1"></path></g><g transform="translate(323 179)"><path d="M0 -19L16.5 9.5L-16.5 9.5Z" stroke="#ff00b9" fill="none" stroke-width="1"></path></g><g transform="translate(185 385)"><path d="M0 -20L17.3 10L-17.3 10Z" stroke="#ff00b9" fill="none" stroke-width="1"></path></g><g transform="translate(499 256)"><path d="M0 -19L16.5 9.5L-16.5 9.5Z" stroke="#ff00b9" fill="none" stroke-width="1"></path></g><g transform="translate(664 435)"><path d="M0 -13L11.3 6.5L-11.3 6.5Z" stroke="#ff00b9" fill="none" stroke-width="1"></path></g><g transform="translate(572 367)"><path d="M0 -11L9.5 5.5L-9.5 5.5Z" stroke="#ff00b9" fill="none" stroke-width="1"></path></g><g transform="translate(40 443)"><path d="M0 -20L17.3 10L-17.3 10Z" stroke="#ff00b9" fill="none" stroke-width="1"></path></g><g transform="translate(648 590)"><path d="M0 -22L19.1 11L-19.1 11Z" stroke="#ff00b9" fill="none" stroke-width="1"></path></g><g transform="translate(591 559)"><path d="M0 -13L11.3 6.5L-11.3 6.5Z" stroke="#ff00b9" fill="none" stroke-width="1"></path></g><g transform="translate(370 497)"><path d="M0 -18L15.6 9L-15.6 9Z" stroke="#ff00b9" fill="none" stroke-width="1"></path></g><g transform="translate(806 283)"><path d="M0 -18L15.6 9L-15.6 9Z" stroke="#ff00b9" fill="none" stroke-width="1"></path></g><g transform="translate(855 427)"><path d="M0 -17L14.7 8.5L-14.7 8.5Z" stroke="#ff00b9" fill="none" stroke-width="1"></path></g><g transform="translate(430 71)"><path d="M0 -19L16.5 9.5L-16.5 9.5Z" stroke="#ff00b9" fill="none" stroke-width="1"></path></g><g transform="translate(813 498)"><path d="M0 -14L12.1 7L-12.1 7Z" stroke="#ff00b9" fill="none" stroke-width="1"></path></g><g transform="translate(884 579)"><path d="M0 -21L18.2 10.5L-18.2 10.5Z" stroke="#ff00b9" fill="none" stroke-width="1"></path></g><g transform="translate(711 152)"><path d="M0 -19L16.5 9.5L-16.5 9.5Z" stroke="#ff00b9" fill="none" stroke-width="1"></path></g><g transform="translate(338 429)"><path d="M0 -11L9.5 5.5L-9.5 5.5Z" stroke="#ff00b9" fill="none" stroke-width="1"></path></g><g transform="translate(70 203)"><path d="M0 -11L9.5 5.5L-9.5 5.5Z" stroke="#ff00b9" fill="none" stroke-width="1"></path></g><g transform="translate(60 33)"><path d="M0 -18L15.6 9L-15.6 9Z" stroke="#ff00b9" fill="none" stroke-width="1"></path></g><g transform="translate(198 495)"><path d="M0 -17L14.7 8.5L-14.7 8.5Z" stroke="#ff00b9" fill="none" stroke-width="1"></path></g><g transform="translate(695 369)"><path d="M0 -25L21.7 12.5L-21.7 12.5Z" stroke="#ff00b9" fill="none" stroke-width="1"></path></g><g transform="translate(252 161)"><path d="M0 -11L9.5 5.5L-9.5 5.5Z" stroke="#ff00b9" fill="none" stroke-width="1"></path></g><g transform="translate(218 60)"><path d="M0 -12L10.4 6L-10.4 6Z" stroke="#ff00b9" fill="none" stroke-width="1"></path></g><g transform="translate(698 308)"><path d="M0 -17L14.7 8.5L-14.7 8.5Z" stroke="#ff00b9" fill="none" stroke-width="1"></path></g><g transform="translate(434 233)"><path d="M0 -16L13.9 8L-13.9 8Z" stroke="#ff00b9" fill="none" stroke-width="1"></path></g><g transform="translate(438 383)"><path d="M0 -13L11.3 6.5L-11.3 6.5Z" stroke="#ff00b9" fill="none" stroke-width="1"></path></g><g transform="translate(278 269)"><path d="M0 -17L14.7 8.5L-14.7 8.5Z" stroke="#ff00b9" fill="none" stroke-width="1"></path></g><g transform="translate(355 89)"><path d="M0 -25L21.7 12.5L-21.7 12.5Z" stroke="#ff00b9" fill="none" stroke-width="1"></path></g><g transform="translate(45 340)"><path d="M0 -20L17.3 10L-17.3 10Z" stroke="#ff00b9" fill="none" stroke-width="1"></path></g><g transform="translate(37 539)"><path d="M0 -17L14.7 8.5L-14.7 8.5Z" stroke="#ff00b9" fill="none" stroke-width="1"></path></g><g transform="translate(324 325)"><path d="M0 -14L12.1 7L-12.1 7Z" stroke="#ff00b9" fill="none" stroke-width="1"></path></g><g transform="translate(466 576)"><path d="M0 -12L10.4 6L-10.4 6Z" stroke="#ff00b9" fill="none" stroke-width="1"></path></g><g transform="translate(832 4)"><path d="M0 -23L19.9 11.5L-19.9 11.5Z" stroke="#ff00b9" fill="none" stroke-width="1"></path></g><g transform="translate(767 19)"><path d="M0 -21L18.2 10.5L-18.2 10.5Z" stroke="#ff00b9" fill="none" stroke-width="1"></path></g><g transform="translate(798 376)"><path d="M0 -20L17.3 10L-17.3 10Z" stroke="#ff00b9" fill="none" stroke-width="1"></path></g><g transform="translate(655 77)"><path d="M0 -17L14.7 8.5L-14.7 8.5Z" stroke="#ff00b9" fill="none" stroke-width="1"></path></g><g transform="translate(579 20)"><path d="M0 -18L15.6 9L-15.6 9Z" stroke="#ff00b9" fill="none" stroke-width="1"></path></g><g transform="translate(543 289)"><path d="M0 -16L13.9 8L-13.9 8Z" stroke="#ff00b9" fill="none" stroke-width="1"></path></g><g transform="translate(415 132)"><path d="M0 -20L17.3 10L-17.3 10Z" stroke="#ff00b9" fill="none" stroke-width="1"></path></g><g transform="translate(551 191)"><path d="M0 -12L10.4 6L-10.4 6Z" stroke="#ff00b9" fill="none" stroke-width="1"></path></g><g transform="translate(116 8)"><path d="M0 -22L19.1 11L-19.1 11Z" stroke="#ff00b9" fill="none" stroke-width="1"></path></g><g transform="translate(373 199)"><path d="M0 -24L20.8 12L-20.8 12Z" stroke="#ff00b9" fill="none" stroke-width="1"></path></g><g transform="translate(830 583)"><path d="M0 -21L18.2 10.5L-18.2 10.5Z" stroke="#ff00b9" fill="none" stroke-width="1"></path></g><g transform="translate(1 135)"><path d="M0 -19L16.5 9.5L-16.5 9.5Z" stroke="#ff00b9" fill="none" stroke-width="1"></path></g><g transform="translate(458 167)"><path d="M0 -23L19.9 11.5L-19.9 11.5Z" stroke="#ff00b9" fill="none" stroke-width="1"></path></g><g transform="translate(599 447)"><path d="M0 -22L19.1 11L-19.1 11Z" stroke="#ff00b9" fill="none" stroke-width="1"></path></g><g transform="translate(627 245)"><path d="M0 -12L10.4 6L-10.4 6Z" stroke="#ff00b9" fill="none" stroke-width="1"></path></g><g transform="translate(881 347)"><path d="M0 -25L21.7 12.5L-21.7 12.5Z" stroke="#ff00b9" fill="none" stroke-width="1"></path></g><g transform="translate(107 513)"><path d="M0 -17L14.7 8.5L-14.7 8.5Z" stroke="#ff00b9" fill="none" stroke-width="1"></path></g><g transform="translate(892 482)"><path d="M0 -17L14.7 8.5L-14.7 8.5Z" stroke="#ff00b9" fill="none" stroke-width="1"></path></g><g transform="translate(753 577)"><path d="M0 -17L14.7 8.5L-14.7 8.5Z" stroke="#ff00b9" fill="none" stroke-width="1"></path></g><g transform="translate(477 316)"><path d="M0 -17L14.7 8.5L-14.7 8.5Z" stroke="#ff00b9" fill="none" stroke-width="1"></path></g><g transform="translate(225 3)"><path d="M0 -15L13 7.5L-13 7.5Z" stroke="#ff00b9" fill="none" stroke-width="1"></path></g><g transform="translate(159 94)"><path d="M0 -11L9.5 5.5L-9.5 5.5Z" stroke="#ff00b9" fill="none" stroke-width="1"></path></g><g transform="translate(664 20)"><path d="M0 -20L17.3 10L-17.3 10Z" stroke="#ff00b9" fill="none" stroke-width="1"></path></g><g transform="translate(98 593)"><path d="M0 -18L15.6 9L-15.6 9Z" stroke="#ff00b9" fill="none" stroke-width="1"></path></g><g transform="translate(122 166)"><path d="M0 -15L13 7.5L-13 7.5Z" stroke="#ff00b9" fill="none" stroke-width="1"></path></g><g transform="translate(521 137)"><path d="M0 -19L16.5 9.5L-16.5 9.5Z" stroke="#ff00b9" fill="none" stroke-width="1"></path></g><g transform="translate(245 343)"><path d="M0 -20L17.3 10L-17.3 10Z" stroke="#ff00b9" fill="none" stroke-width="1"></path></g><g transform="translate(414 431)"><path d="M0 -24L20.8 12L-20.8 12Z" stroke="#ff00b9" fill="none" stroke-width="1"></path></g><g transform="translate(896 206)"><path d="M0 -13L11.3 6.5L-11.3 6.5Z" stroke="#ff00b9" fill="none" stroke-width="1"></path></g><g transform="translate(516 370)"><path d="M0 -25L21.7 12.5L-21.7 12.5Z" stroke="#ff00b9" fill="none" stroke-width="1"></path></g><g transform="translate(425 536)"><path d="M0 -11L9.5 5.5L-9.5 5.5Z" stroke="#ff00b9" fill="none" stroke-width="1"></path></g><g transform="translate(626 386)"><path d="M0 -24L20.8 12L-20.8 12Z" stroke="#ff00b9" fill="none" stroke-width="1"></path></g><g transform="translate(823 212)"><path d="M0 -25L21.7 12.5L-21.7 12.5Z" stroke="#ff00b9" fill="none" stroke-width="1"></path></g><g transform="translate(385 268)"><path d="M0 -17L14.7 8.5L-14.7 8.5Z" stroke="#ff00b9" fill="none" stroke-width="1"></path></g><g transform="translate(599 299)"><path d="M0 -25L21.7 12.5L-21.7 12.5Z" stroke="#ff00b9" fill="none" stroke-width="1"></path></g><g transform="translate(169 207)"><path d="M0 -17L14.7 8.5L-14.7 8.5Z" stroke="#ff00b9" fill="none" stroke-width="1"></path></g><g transform="translate(629 512)"><path d="M0 -10L8.7 5L-8.7 5Z" stroke="#ff00b9" fill="none" stroke-width="1"></path></g><g transform="translate(164 318)"><path d="M0 -16L13.9 8L-13.9 8Z" stroke="#ff00b9" fill="none" stroke-width="1"></path></g><g transform="translate(309 595)"><path d="M0 -23L19.9 11.5L-19.9 11.5Z" stroke="#ff00b9" fill="none" stroke-width="1"></path></g><g transform="translate(396 25)"><path d="M0 -24L20.8 12L-20.8 12Z" stroke="#ff00b9" fill="none" stroke-width="1"></path></g><g transform="translate(766 143)"><path d="M0 -21L18.2 10.5L-18.2 10.5Z" stroke="#ff00b9" fill="none" stroke-width="1"></path></g><g transform="translate(539 574)"><path d="M0 -13L11.3 6.5L-11.3 6.5Z" stroke="#ff00b9" fill="none" stroke-width="1"></path></g><g transform="translate(742 340)"><path d="M0 -10L8.7 5L-8.7 5Z" stroke="#ff00b9" fill="none" stroke-width="1"></path></g><g transform="translate(651 337)"><path d="M0 -16L13.9 8L-13.9 8Z" stroke="#ff00b9" fill="none" stroke-width="1"></path></g><g transform="translate(70 258)"><path d="M0 -19L16.5 9.5L-16.5 9.5Z" stroke="#ff00b9" fill="none" stroke-width="1"></path></g><g transform="translate(374 385)"><path d="M0 -12L10.4 6L-10.4 6Z" stroke="#ff00b9" fill="none" stroke-width="1"></path></g><g transform="translate(750 281)"><path d="M0 -16L13.9 8L-13.9 8Z" stroke="#ff00b9" fill="none" stroke-width="1"></path></g><g transform="translate(216 432)"><path d="M0 -12L10.4 6L-10.4 6Z" stroke="#ff00b9" fill="none" stroke-width="1"></path></g><g transform="translate(856 534)"><path d="M0 -11L9.5 5.5L-9.5 5.5Z" stroke="#ff00b9" fill="none" stroke-width="1"></path></g><g transform="translate(700 560)"><path d="M0 -14L12.1 7L-12.1 7Z" stroke="#ff00b9" fill="none" stroke-width="1"></path></g><g transform="translate(306 375)"><path d="M0 -25L21.7 12.5L-21.7 12.5Z" stroke="#ff00b9" fill="none" stroke-width="1"></path></g><g transform="translate(326 539)"><path d="M0 -19L16.5 9.5L-16.5 9.5Z" stroke="#ff00b9" fill="none" stroke-width="1"></path></g><g transform="translate(565 509)"><path d="M0 -11L9.5 5.5L-9.5 5.5Z" stroke="#ff00b9" fill="none" stroke-width="1"></path></g><g transform="translate(6 294)"><path d="M0 -20L17.3 10L-17.3 10Z" stroke="#ff00b9" fill="none" stroke-width="1"></path></g><g transform="translate(886 8)"><path d="M0 -21L18.2 10.5L-18.2 10.5Z" stroke="#ff00b9" fill="none" stroke-width="1"></path></g><g transform="translate(23 83)"><path d="M0 -25L21.7 12.5L-21.7 12.5Z" stroke="#ff00b9" fill="none" stroke-width="1"></path></g><g transform="translate(9 489)"><path d="M0 -15L13 7.5L-13 7.5Z" stroke="#ff00b9" fill="none" stroke-width="1"></path></g><g transform="translate(525 16)"><path d="M0 -10L8.7 5L-8.7 5Z" stroke="#ff00b9" fill="none" stroke-width="1"></path></g><g transform="translate(3 400)"><path d="M0 -25L21.7 12.5L-21.7 12.5Z" stroke="#ff00b9" fill="none" stroke-width="1"></path></g><g transform="translate(847 56)"><path d="M0 -24L20.8 12L-20.8 12Z" stroke="#ff00b9" fill="none" stroke-width="1"></path></g><g transform="translate(101 306)"><path d="M0 -21L18.2 10.5L-18.2 10.5Z" stroke="#ff00b9" fill="none" stroke-width="1"></path></g><g transform="translate(679 490)"><path d="M0 -20L17.3 10L-17.3 10Z" stroke="#ff00b9" fill="none" stroke-width="1"></path></g></g></svg>