<svg id="visual" viewBox="0 0 900 600" width="900" height="600" xmlns="http://www.w3.org/2000/svg" xmlns:xlink="http://www.w3.org/1999/xlink" version="1.1"><rect x="0" y="0" width="900" height="600" fill="#D89B85"></rect><g fill="#8AFCEC"><path d="M16.2 9.3L16.2 41.7L-16.2 41.7L-16.2 9.3L-44.2 -6.8L-28 -34.9L0 -18.7L28 -34.9L44.2 -6.8Z" transform="translate(736 504)"></path><path d="M4 2.3L4 10.4L-4 10.4L-4 2.3L-11.1 -1.7L-7 -8.7L0 -4.7L7 -8.7L11.1 -1.7Z" transform="translate(651 327)"></path><path d="M13.2 7.6L13.2 34.1L-13.2 34.1L-13.2 7.6L-36.1 -5.6L-22.9 -28.5L0 -15.3L22.9 -28.5L36.1 -5.6Z" transform="translate(474 84)"></path><path d="M3.8 2.2L3.8 9.7L-3.8 9.7L-3.8 2.2L-10.3 -1.6L-6.5 -8.1L0 -4.4L6.5 -8.1L10.3 -1.6Z" transform="translate(142 94)"></path><path d="M6.7 3.9L6.7 17.4L-6.7 17.4L-6.7 3.9L-18.4 -2.9L-11.7 -14.5L0 -7.8L11.7 -14.5L18.4 -2.9Z" transform="translate(280 117)"></path><path d="M7.8 4.5L7.8 20.2L-7.8 20.2L-7.8 4.5L-21.4 -3.3L-13.6 -16.9L0 -9L13.6 -16.9L21.4 -3.3Z" transform="translate(223 279)"></path><path d="M9.2 5.3L9.2 23.6L-9.2 23.6L-9.2 5.3L-25.1 -3.9L-15.9 -19.8L0 -10.6L15.9 -19.8L25.1 -3.9Z" transform="translate(485 319)"></path><path d="M10 5.8L10 25.7L-10 25.7L-10 5.8L-27.3 -4.2L-17.3 -21.5L0 -11.5L17.3 -21.5L27.3 -4.2Z" transform="translate(781 271)"></path><path d="M6.5 3.7L6.5 16.7L-6.5 16.7L-6.5 3.7L-17.7 -2.7L-11.2 -14L0 -7.5L11.2 -14L17.7 -2.7Z" transform="translate(812 403)"></path><path d="M9.4 5.5L9.4 24.3L-9.4 24.3L-9.4 5.5L-25.8 -4L-16.4 -20.4L0 -10.9L16.4 -20.4L25.8 -4Z" transform="translate(791 114)"></path><path d="M15.1 8.7L15.1 38.9L-15.1 38.9L-15.1 8.7L-41.3 -6.4L-26.2 -32.6L0 -17.4L26.2 -32.6L41.3 -6.4Z" transform="translate(332 425)"></path><path d="M5.4 3.1L5.4 13.9L-5.4 13.9L-5.4 3.1L-14.7 -2.3L-9.3 -11.6L0 -6.2L9.3 -11.6L14.7 -2.3Z" transform="translate(632 86)"></path><path d="M12.1 7L12.1 31.3L-12.1 31.3L-12.1 7L-33.2 -5.1L-21 -26.2L0 -14L21 -26.2L33.2 -5.1Z" transform="translate(570 230)"></path><path d="M4 2.3L4 10.4L-4 10.4L-4 2.3L-11.1 -1.7L-7 -8.7L0 -4.7L7 -8.7L11.1 -1.7Z" transform="translate(522 488)"></path><path d="M14 8.1L14 36.2L-14 36.2L-14 8.1L-38.3 -5.9L-24.3 -30.2L0 -16.2L24.3 -30.2L38.3 -5.9Z" transform="translate(73 264)"></path><path d="M4 2.3L4 10.4L-4 10.4L-4 2.3L-11.1 -1.7L-7 -8.7L0 -4.7L7 -8.7L11.1 -1.7Z" transform="translate(82 490)"></path><path d="M8.6 5L8.6 22.3L-8.6 22.3L-8.6 5L-23.6 -3.6L-15 -18.6L0 -10L15 -18.6L23.6 -3.6Z" transform="translate(225 488)"></path><path d="M7.6 4.4L7.6 19.5L-7.6 19.5L-7.6 4.4L-20.6 -3.2L-13.1 -16.3L0 -8.7L13.1 -16.3L20.6 -3.2Z" transform="translate(392 539)"></path><path d="M14.3 8.3L14.3 36.9L-14.3 36.9L-14.3 8.3L-39.1 -6L-24.8 -30.8L0 -16.5L24.8 -30.8L39.1 -6Z" transform="translate(159 381)"></path><path d="M5.7 3.3L5.7 14.6L-5.7 14.6L-5.7 3.3L-15.5 -2.4L-9.8 -12.2L0 -6.5L9.8 -12.2L15.5 -2.4Z" transform="translate(364 300)"></path><path d="M4 2.3L4 10.4L-4 10.4L-4 2.3L-11.1 -1.7L-7 -8.7L0 -4.7L7 -8.7L11.1 -1.7Z" transform="translate(436 201)"></path></g></svg>