<svg id="visual" viewBox="0 0 900 600" width="900" height="600" xmlns="http://www.w3.org/2000/svg" xmlns:xlink="http://www.w3.org/1999/xlink" version="1.1"><rect x="0" y="0" width="900" height="600" fill="#69FA74"></rect><g fill="#838FFA"><path d="M16.2 9.3L16.2 41.7L-16.2 41.7L-16.2 9.3L-44.2 -6.8L-28 -34.9L0 -18.7L28 -34.9L44.2 -6.8Z" transform="translate(696 431)"></path><path d="M4 2.3L4 10.4L-4 10.4L-4 2.3L-11.1 -1.7L-7 -8.7L0 -4.7L7 -8.7L11.1 -1.7Z" transform="translate(101 314)"></path><path d="M8.4 4.8L8.4 21.6L-8.4 21.6L-8.4 4.8L-22.9 -3.5L-14.5 -18L0 -9.7L14.5 -18L22.9 -3.5Z" transform="translate(507 466)"></path><path d="M9.2 5.3L9.2 23.6L-9.2 23.6L-9.2 5.3L-25.1 -3.9L-15.9 -19.8L0 -10.6L15.9 -19.8L25.1 -3.9Z" transform="translate(231 147)"></path><path d="M7 4.1L7 18.1L-7 18.1L-7 4.1L-19.2 -3L-12.2 -15.1L0 -8.1L12.2 -15.1L19.2 -3Z" transform="translate(800 174)"></path><path d="M9.2 5.3L9.2 23.6L-9.2 23.6L-9.2 5.3L-25.1 -3.9L-15.9 -19.8L0 -10.6L15.9 -19.8L25.1 -3.9Z" transform="translate(205 401)"></path><path d="M12.7 7.3L12.7 32.7L-12.7 32.7L-12.7 7.3L-34.7 -5.4L-22 -27.3L0 -14.6L22 -27.3L34.7 -5.4Z" transform="translate(359 338)"></path><path d="M12.1 7L12.1 31.3L-12.1 31.3L-12.1 7L-33.2 -5.1L-21 -26.2L0 -14L21 -26.2L33.2 -5.1Z" transform="translate(68 475)"></path><path d="M5.1 3L5.1 13.2L-5.1 13.2L-5.1 3L-14 -2.2L-8.9 -11L0 -5.9L8.9 -11L14 -2.2Z" transform="translate(397 522)"></path><path d="M12.4 7.2L12.4 32L-12.4 32L-12.4 7.2L-33.9 -5.2L-21.5 -26.7L0 -14.3L21.5 -26.7L33.9 -5.2Z" transform="translate(363 153)"></path><path d="M9.2 5.3L9.2 23.6L-9.2 23.6L-9.2 5.3L-25.1 -3.9L-15.9 -19.8L0 -10.6L15.9 -19.8L25.1 -3.9Z" transform="translate(550 344)"></path><path d="M15.4 8.9L15.4 39.6L-15.4 39.6L-15.4 8.9L-42 -6.5L-26.6 -33.1L0 -17.8L26.6 -33.1L42 -6.5Z" transform="translate(100 61)"></path><path d="M14.3 8.3L14.3 36.9L-14.3 36.9L-14.3 8.3L-39.1 -6L-24.8 -30.8L0 -16.5L24.8 -30.8L39.1 -6Z" transform="translate(777 308)"></path><path d="M5.7 3.3L5.7 14.6L-5.7 14.6L-5.7 3.3L-15.5 -2.4L-9.8 -12.2L0 -6.5L9.8 -12.2L15.5 -2.4Z" transform="translate(184 532)"></path><path d="M9.7 5.6L9.7 25L-9.7 25L-9.7 5.6L-26.5 -4.1L-16.8 -20.9L0 -11.2L16.8 -20.9L26.5 -4.1Z" transform="translate(609 195)"></path><path d="M14.8 8.6L14.8 38.3L-14.8 38.3L-14.8 8.6L-40.5 -6.3L-25.7 -32L0 -17.1L25.7 -32L40.5 -6.3Z" transform="translate(693 83)"></path><path d="M5.1 3L5.1 13.2L-5.1 13.2L-5.1 3L-14 -2.2L-8.9 -11L0 -5.9L8.9 -11L14 -2.2Z" transform="translate(486 74)"></path><path d="M15.7 9L15.7 40.3L-15.7 40.3L-15.7 9L-42.8 -6.6L-27.1 -33.7L0 -18.1L27.1 -33.7L42.8 -6.6Z" transform="translate(838 437)"></path><path d="M11.1 6.4L11.1 28.5L-11.1 28.5L-11.1 6.4L-30.2 -4.7L-19.2 -23.8L0 -12.8L19.2 -23.8L30.2 -4.7Z" transform="translate(71 197)"></path><path d="M9.4 5.5L9.4 24.3L-9.4 24.3L-9.4 5.5L-25.8 -4L-16.4 -20.4L0 -10.9L16.4 -20.4L25.8 -4Z" transform="translate(465 238)"></path><path d="M11.3 6.5L11.3 29.2L-11.3 29.2L-11.3 6.5L-31 -4.8L-19.6 -24.4L0 -13.1L19.6 -24.4L31 -4.8Z" transform="translate(240 273)"></path><path d="M7.3 4.2L7.3 18.8L-7.3 18.8L-7.3 4.2L-19.9 -3.1L-12.6 -15.7L0 -8.4L12.6 -15.7L19.9 -3.1Z" transform="translate(615 525)"></path></g></svg>