<svg id="visual" viewBox="0 0 900 600" width="900" height="600" xmlns="http://www.w3.org/2000/svg" xmlns:xlink="http://www.w3.org/1999/xlink" version="1.1"><rect x="0" y="0" width="900" height="600" fill="#A4C35F"></rect><g fill="#D67FCD"><path d="M16.2 9.3L16.2 41.7L-16.2 41.7L-16.2 9.3L-44.2 -6.8L-28 -34.9L0 -18.7L28 -34.9L44.2 -6.8Z" transform="translate(498 354)"></path><path d="M4 2.3L4 10.4L-4 10.4L-4 2.3L-11.1 -1.7L-7 -8.7L0 -4.7L7 -8.7L11.1 -1.7Z" transform="translate(308 210)"></path><path d="M14.3 8.3L14.3 36.9L-14.3 36.9L-14.3 8.3L-39.1 -6L-24.8 -30.8L0 -16.5L24.8 -30.8L39.1 -6Z" transform="translate(184 61)"></path><path d="M5.4 3.1L5.4 13.9L-5.4 13.9L-5.4 3.1L-14.7 -2.3L-9.3 -11.6L0 -6.2L9.3 -11.6L14.7 -2.3Z" transform="translate(783 309)"></path><path d="M6.2 3.6L6.2 16L-6.2 16L-6.2 3.6L-17 -2.6L-10.8 -13.4L0 -7.2L10.8 -13.4L17 -2.6Z" transform="translate(127 196)"></path><path d="M14.6 8.4L14.6 37.6L-14.6 37.6L-14.6 8.4L-39.8 -6.2L-25.2 -31.4L0 -16.8L25.2 -31.4L39.8 -6.2Z" transform="translate(814 491)"></path><path d="M4.9 2.8L4.9 12.5L-4.9 12.5L-4.9 2.8L-13.3 -2.1L-8.4 -10.5L0 -5.6L8.4 -10.5L13.3 -2.1Z" transform="translate(508 482)"></path><path d="M14.8 8.6L14.8 38.3L-14.8 38.3L-14.8 8.6L-40.5 -6.3L-25.7 -32L0 -17.1L25.7 -32L40.5 -6.3Z" transform="translate(582 220)"></path><path d="M7 4.1L7 18.1L-7 18.1L-7 4.1L-19.2 -3L-12.2 -15.1L0 -8.1L12.2 -15.1L19.2 -3Z" transform="translate(440 87)"></path><path d="M7 4.1L7 18.1L-7 18.1L-7 4.1L-19.2 -3L-12.2 -15.1L0 -8.1L12.2 -15.1L19.2 -3Z" transform="translate(669 524)"></path><path d="M4.3 2.5L4.3 11.1L-4.3 11.1L-4.3 2.5L-11.8 -1.8L-7.5 -9.3L0 -5L7.5 -9.3L11.8 -1.8Z" transform="translate(808 174)"></path><path d="M11.1 6.4L11.1 28.5L-11.1 28.5L-11.1 6.4L-30.2 -4.7L-19.2 -23.8L0 -12.8L19.2 -23.8L30.2 -4.7Z" transform="translate(354 444)"></path><path d="M12.1 7L12.1 31.3L-12.1 31.3L-12.1 7L-33.2 -5.1L-21 -26.2L0 -14L21 -26.2L33.2 -5.1Z" transform="translate(669 402)"></path><path d="M9.7 5.6L9.7 25L-9.7 25L-9.7 5.6L-26.5 -4.1L-16.8 -20.9L0 -11.2L16.8 -20.9L26.5 -4.1Z" transform="translate(662 82)"></path><path d="M10 5.8L10 25.7L-10 25.7L-10 5.8L-27.3 -4.2L-17.3 -21.5L0 -11.5L17.3 -21.5L27.3 -4.2Z" transform="translate(107 340)"></path><path d="M8.9 5.1L8.9 23L-8.9 23L-8.9 5.1L-24.3 -3.8L-15.4 -19.2L0 -10.3L15.4 -19.2L24.3 -3.8Z" transform="translate(199 421)"></path><path d="M8.4 4.8L8.4 21.6L-8.4 21.6L-8.4 4.8L-22.9 -3.5L-14.5 -18L0 -9.7L14.5 -18L22.9 -3.5Z" transform="translate(266 526)"></path><path d="M15.7 9L15.7 40.3L-15.7 40.3L-15.7 9L-42.8 -6.6L-27.1 -33.7L0 -18.1L27.1 -33.7L42.8 -6.6Z" transform="translate(117 529)"></path><path d="M8.6 5L8.6 22.3L-8.6 22.3L-8.6 5L-23.6 -3.6L-15 -18.6L0 -10L15 -18.6L23.6 -3.6Z" transform="translate(311 75)"></path><path d="M13.8 7.9L13.8 35.5L-13.8 35.5L-13.8 7.9L-37.6 -5.8L-23.8 -29.7L0 -15.9L23.8 -29.7L37.6 -5.8Z" transform="translate(456 215)"></path><path d="M7.8 4.5L7.8 20.2L-7.8 20.2L-7.8 4.5L-21.4 -3.3L-13.6 -16.9L0 -9L13.6 -16.9L21.4 -3.3Z" transform="translate(283 333)"></path></g></svg>